<?xml version="1.0" encoding="utf-8"?>
<!-- Generator: Adobe Illustrator 16.0.0, SVG Export Plug-In . SVG Version: 6.00 Build 0)  -->
<!DOCTYPE svg PUBLIC "-//W3C//DTD SVG 1.1//EN" "http://www.w3.org/Graphics/SVG/1.1/DTD/svg11.dtd">
<svg version="1.1" id="Calque_1" xmlns="http://www.w3.org/2000/svg" xmlns:xlink="http://www.w3.org/1999/xlink" x="0px" y="0px"
	 width="320px" height="568px" viewBox="0 0 320 568" enable-background="new 0 0 320 568" xml:space="preserve">
<g>
	<defs>
		<rect id="SVGID_1_" x="0.104" y="-1.217" width="319.896" height="569.217"/>
	</defs>
	<clipPath id="SVGID_2_">
		<use xlink:href="#SVGID_1_"  overflow="visible"/>
	</clipPath>
	<g display="none" clip-path="url(#SVGID_2_)">
		
			<image display="inline" overflow="visible" width="2000" height="1300" xlink:href="../../test/img/background_emmet.jpg"  transform="matrix(0.3241 0 0 0.3242 -284.2559 98.2002)">
		</image>
	</g>
	<g display="none" clip-path="url(#SVGID_2_)">
		
			<image display="inline" overflow="visible" width="2000" height="1300" xlink:href="../../test/img/background_emmet.jpg"  transform="matrix(0.3241 0 0 0.3242 -297.2559 518.6777)">
		</image>
	</g>
	<g display="none" clip-path="url(#SVGID_2_)">
		
			<image display="inline" overflow="visible" width="2000" height="1300" xlink:href="../../test/img/background_emmet.jpg"  transform="matrix(-0.3241 0 0 -0.3242 351.4443 98.7393)">
		</image>
	</g>
	<g clip-path="url(#SVGID_2_)">
		<g>
			<g>
				<path fill="#FAC5A1" d="M278.514,183.331c0.019,0.241-0.81,1.241-1.734,2.277c-0.892,0.506-1.679,1.02-1.679,1.02
					c-1.257-0.421-3.831,0.349-3.831,0.349c-0.115-0.249-0.497-0.476-0.916-0.69c0.693-0.921,1.854-2.495,2.43-3.375
					c0.848-1.3,1.875-1.331,1.979-0.855c0.068,0.306-1.236,2.241-2.187,3.599c0.828-0.849,1.806-1.864,2.37-2.511
					c1.124-1.284,2.245-1.156,2.288-0.619c0.013,0.157-0.346,0.646-0.853,1.256C277.449,182.68,278.473,182.817,278.514,183.331z"/>
				<path fill="#195567" d="M249.92,233.34c0.312,6.854-21.354,13.364-21.354,13.364s-8.543,1.746-11.969-11.806
					c-3.426-13.552,7.658-32.947,7.658-32.947c7.786,13.669,24.499,6.944,24.499,6.944s0.021,0.475,0.062,1.298
					c0.106,2.158,0.328,6.725,0.551,11.427C249.58,226.031,249.795,230.569,249.92,233.34z"/>
				<path fill="#FBCBA5" d="M279.152,185.591c-1.233,0.937-4.698,3.565-5.161,4.563s-1.678,5.032-1.678,5.032l-4.079-1.412
					c0,0,0.729-3.62,0.313-4.102c-0.414-0.484-1.584-2.897-1.291-3.324c0.289-0.432,0.565-4.861,1.516-4.657
					c0.952,0.202,0.212,3.305,0.299,3.763c0.05,0.267,0.698,0.535,1.282,0.833c0.419,0.214,0.801,0.441,0.916,0.69
					c0,0,2.574-0.77,3.831-0.349c0,0,0.787-0.514,1.679-1.02c0.7-0.398,1.467-0.788,1.959-0.921
					C278.738,184.688,280.386,184.656,279.152,185.591z"/>
				<path fill="#195567" d="M272.986,194.431c0,0-8.221,23.105-23.618,27.19c-0.223-4.703-0.444-9.27-0.551-11.427
					c1.385,0.641,4.985,1.676,9.062-2.188c5.225-4.955,10.121-15.261,10.121-15.261S270.853,194.048,272.986,194.431z"/>
				<polygon fill="#FAFDFE" points="248.158,212.477 245.324,223.085 244.263,227.07 241.833,223.222 235.643,213.424 				"/>
				<path fill="#E94A53" d="M243.784,216.531l1.539,6.554l-1.062,3.985l-2.43-3.848l0.935-6.654
					c-0.785-0.607-1.98-2.048-2.514-2.709c0.293-0.302,0.623-0.641,0.955-0.984c0.969-0.984,1.963-1.978,2.134-2.056
					c0.623,0.723,1.676,2.046,2.367,2.928C245.183,214.704,244.352,215.952,243.784,216.531z"/>
				<path fill="#DDF0F5" d="M243.342,210.819c-0.171,0.079-1.165,1.072-2.134,2.056c-0.332,0.343-0.662,0.682-0.955,0.984
					c-0.588,0.606-1.021,1.061-1.021,1.061c-3.397-0.312-16.127-9.967-16.127-10.796c0-0.831,1.48-3.354,1.48-3.354l0.003,0.002
					c0.111,0.296,0.256,0.518,0.436,0.651c2.647,1.989,10.72,9.491,18.225,9.311c0.013,0.006,0.025,0.016,0.038,0.02
					c0.002,0.008,0.009,0.01,0.012,0.018C243.314,210.786,243.327,210.803,243.342,210.819z"/>
				<path fill="#DDF0F5" d="M243.358,210.809c-0.004,0-0.01,0.004-0.017,0.01c-0.018-0.021-0.037-0.043-0.055-0.066
					C243.342,210.788,243.367,210.809,243.358,210.809z"/>
				<path fill="#DDF0F5" d="M248.789,208.873v0.741c0,0.831-0.544,4.222-2.389,5.012c0,0-0.283-0.361-0.691-0.878
					c-0.691-0.882-1.744-2.205-2.367-2.928c0.007-0.006,0.013-0.01,0.017-0.01c0.006,0-0.007-0.012-0.034-0.037
					c-0.007,0-0.013-0.002-0.02-0.006c-0.006-0.006-0.012-0.01-0.018-0.014c-0.01-0.008-0.016-0.018-0.022-0.023
					c1.899-0.043,3.762-0.586,5.49-1.833C248.767,208.888,248.776,208.88,248.789,208.873z"/>
				<path fill="#DDF0F5" d="M243.358,210.809c-0.004,0-0.01,0.004-0.017,0.01c-0.018-0.021-0.037-0.043-0.055-0.066
					C243.342,210.788,243.367,210.809,243.358,210.809z"/>
				<path fill="#FBCBA5" d="M248.755,198.408c2.774,7.713,1.217,9.595,0.034,10.465c-0.013,0.008-0.022,0.016-0.034,0.023
					c-1.729,1.247-3.591,1.79-5.49,1.833c-0.006,0.004-0.01,0.004-0.016,0.004c-7.505,0.18-15.577-7.321-18.225-9.311
					c-0.18-0.133-0.324-0.355-0.436-0.651l-0.003-0.002c-1.984-5.198,5.641-33.673,5.641-33.673
					c1.245-3.037,15.959,1.636,17.984,2.958c2.023,1.325,0.311,8.958,1.166,12.308c0.857,3.348,4.438,7.166,4.438,10.982
					C253.815,197.161,248.755,198.408,248.755,198.408z"/>
				<path fill="#6A3018" d="M232.379,184.44h-1.713c0,0-0.571-2.286-1.973-2.182c-1.4,0.104-3.011,3.063-0.935,7.115
					c2.077,4.049-2.839,1.885-2.839,1.885s-4.479-23.383,2.996-27.018c7.475-3.634,29.168-1.662,26.365,5.608
					c-2.802,7.27-9.082,3.945-13.13,0.882c-4.05-3.063-5.296-4.569-7.112-4.153C234.039,166.578,228.591,170.11,232.379,184.44z"/>
				<path fill="#FFFFFF" d="M234.859,190.812c0,0-1.334,11.464,4.619,11.89c3.632,0.261,4.255-2.958,4.255-2.958
					S236.416,202.651,234.859,190.812z"/>
				<ellipse fill="#6A3018" cx="239.233" cy="183.143" rx="0.986" ry="1.557"/>
				<path fill="#6A3018" d="M235.779,181.584c0,0-0.021-0.125-0.012-0.345c0.002-0.111,0.016-0.243,0.036-0.397
					c0.031-0.147,0.052-0.326,0.115-0.506c0.027-0.09,0.059-0.186,0.094-0.284c0.042-0.096,0.084-0.194,0.129-0.296
					c0.092-0.202,0.219-0.402,0.356-0.606c0.152-0.192,0.306-0.4,0.507-0.568c0.099-0.086,0.186-0.188,0.299-0.259l0.332-0.223
					c0.222-0.147,0.478-0.235,0.715-0.343c0.249-0.078,0.499-0.133,0.736-0.186c0.244-0.021,0.479-0.035,0.699-0.043
					c0.22,0.002,0.425,0.039,0.612,0.061c0.094,0.014,0.183,0.027,0.267,0.041c0.086,0.018,0.163,0.047,0.236,0.067
					c0.147,0.043,0.271,0.09,0.375,0.127c0.204,0.074,0.315,0.127,0.315,0.127s-0.125,0.027-0.339,0.057
					c-0.105,0.014-0.233,0.033-0.377,0.045c-0.145,0.008-0.305,0.042-0.477,0.077s-0.357,0.055-0.547,0.098
					c-0.188,0.055-0.382,0.105-0.583,0.153c-0.191,0.07-0.388,0.145-0.589,0.219c-0.093,0.049-0.187,0.1-0.283,0.145
					c-0.096,0.047-0.193,0.088-0.278,0.155c-0.179,0.111-0.361,0.223-0.52,0.364c-0.173,0.122-0.313,0.276-0.466,0.414
					c-0.137,0.151-0.279,0.296-0.396,0.449c-0.122,0.149-0.235,0.296-0.331,0.441c-0.105,0.139-0.184,0.276-0.268,0.397
					c-0.068,0.124-0.146,0.231-0.193,0.324C235.838,181.473,235.779,181.584,235.779,181.584z"/>
			</g>
			<path opacity="0.6" fill="#FFFFFF" d="M214.688,301.723l-3.659-4.842l-2.617-3.462l-1.044-1.384c0,0-30.964-9.563-42.805,20.538
				c0,0,2.639-1.574,7.027-1.088c0,0-8.936,10.144-7.901,21.198c10.352,4.014,22.542-1.823,22.542-1.823
				c-0.726,4.354-2.959,6.469-2.959,6.469C215.446,334.138,214.688,301.723,214.688,301.723z"/>
			<g>
				<path fill="#E94A53" d="M288.672,233.13c0,0,15.763-9.881,15.91-9.026c0.148,0.856-12.802,13.105-12.802,13.105L288.672,233.13z
					"/>
				
					<rect x="196.801" y="291.846" transform="matrix(0.6137 0.7895 -0.7895 0.6137 314.8322 -56.3416)" fill="#E94A53" width="36.392" height="3.476"/>
				
					<rect x="200.963" y="293.923" transform="matrix(0.6138 0.7895 -0.7895 0.6138 315.3805 -53.34)" fill="#E94A53" width="22.487" height="3.479"/>
				<path fill="#E94A53" d="M219.763,252.704c-8.232,6.841-14.905,14.387-19.657,21.83l-18.909,8.857l18.064-28.472
					c0.888-1.399,2.95-2.509,4.604-2.479L219.763,252.704z"/>
				<path fill="#E94A53" d="M256.062,299.537l-3.654,15.473c-0.38,1.615-1.961,3.338-3.533,3.855l-32.03,10.508l13.242-16.163
					l0.071-0.041h0.003C238.513,310.399,247.435,305.805,256.062,299.537z"/>
				<path fill="#EADEDA" d="M293.898,247.012c-2.112,14.798-16.201,35.771-34.849,50.278c-0.99,0.772-1.989,1.52-2.988,2.247
					c-8.627,6.268-17.549,10.862-25.901,13.632h-0.003c-0.028,0.01-0.053,0.02-0.081,0.027l-15.15-19.479l-14.861-19.121
					c0.013-0.021,0.029-0.039,0.041-0.062c4.752-7.442,11.425-14.989,19.657-21.83c0.927-0.772,1.877-1.537,2.846-2.289
					c18.645-14.509,42.643-22.735,57.45-21.203c5.021,0.517,8.986,2.162,11.326,5.057c0.043,0.049,0.081,0.1,0.121,0.149
					C293.933,237.537,294.627,241.908,293.898,247.012z"/>
				<path fill="#E83D4B" d="M271.233,269.369c-6.686,5.202-16.321,3.999-21.523-2.691c-5.198-6.688-3.994-16.328,2.691-21.532
					c6.686-5.2,16.321-3.997,21.522,2.691C279.124,254.527,277.92,264.167,271.233,269.369z"/>
				<path fill="#DBF0FC" d="M269.727,267.432c-5.616,4.371-13.71,3.358-18.079-2.26c-4.368-5.62-3.357-13.717,2.261-18.09
					c5.616-4.369,13.711-3.357,18.08,2.262C276.357,254.962,275.345,263.061,269.727,267.432z"/>
				<path fill="#E94A53" d="M293.898,247.012l-13.84-17.802c5.107,0.529,9.123,2.219,11.448,5.21
					C293.931,237.539,294.626,241.906,293.898,247.012z"/>
				<g>
					<path fill="#FED16B" d="M212.12,298.559l-1.27-1.68l-0.906-1.199l-0.362-0.479c0,0-10.732-3.316-14.839,7.119
						c0,0,0.915-0.547,2.437-0.379c0,0-3.098,3.517-2.739,7.351c3.59,1.39,7.814-0.633,7.814-0.633
						c-0.252,1.509-1.025,2.242-1.025,2.242C212.384,309.796,212.12,298.559,212.12,298.559z"/>
					<path fill="#FFE8BB" d="M211.714,298.02l-0.853-1.131l-0.854-1.133c-6.535,0.668-10.48,9.683-10.48,9.683
						S209.275,304.121,211.714,298.02z"/>
				</g>
				<path fill="#FFFFFF" stroke="#FED16B" stroke-miterlimit="10" d="M291.386,234.269l-76.459,59.446l-14.862-19.119
					c5.291-8.303,12.978-16.739,22.543-24.183c18.644-14.507,42.644-22.733,57.452-21.201
					C285.08,229.729,289.046,231.374,291.386,234.269z"/>
			</g>
			<g>
				<path fill="#195567" d="M227.216,246.777c0,0,12.771,0.388,13.003,1.946c0.232,1.559-4.503,12.937-4.503,12.937l2.45,0.927
					c0,0,8.229-12.305,5.567-15.81c-2.66-3.504-12.438-5.966-13.092-5.767C229.044,241.493,227.216,246.777,227.216,246.777z"/>
				
					<ellipse transform="matrix(0.6048 -0.7964 0.7964 0.6048 -116.1419 294.8881)" fill="#0C0D0D" cx="239.036" cy="264.46" rx="1.869" ry="4.356"/>
			</g>
			<g>
				<path fill="#FBCBA5" d="M213.513,256.803c-0.655,0.049-0.41-3.073-1.095-3.475c-0.688-0.402-0.569,5.192-0.569,5.192
					s-0.815,0.438-2.905-1.201c-1.516-1.184-0.196-5.506,0.648-7.801l4.294,0.39C214.169,252.487,214.025,256.768,213.513,256.803z"
					/>
				<path fill="#195567" d="M224.256,219.855c-6.957,11.006-10.224,30.064-10.224,30.064l-0.146-0.012l-4.294-0.39l-0.183-0.016
					c-0.709-22.04,12.919-43.716,12.919-43.716L224.256,219.855z"/>
				<path fill="#0C424F" d="M217.183,236.735l5.521-14.186c0,0-5.684,16.448-3.26,19.233
					C219.443,241.783,218.052,239.468,217.183,236.735z"/>
			</g>
			<g>
				<path fill="#FED16B" d="M277.47,177.711c0.983-1.08,1.588-2.509,1.588-4.085c0-3.355-2.718-6.075-6.071-6.075
					s-6.073,2.72-6.073,6.075c0,1.576,0.604,3.005,1.59,4.085h-0.01c0,0,2.193,2.275,2.202,5c0,0,4.387,1.123,4.522,0
					c0.424-3.483,2.282-4.949,2.262-5C277.479,177.709,277.47,177.711,277.47,177.711z"/>
				<path fill="#EADEDA" d="M275.625,183.192h-5.473c0-0.265,0.195-0.48,0.438-0.48h4.596
					C275.43,182.711,275.625,182.927,275.625,183.192z"/>
				<path fill="#EADEDA" d="M275.626,184.154c0,0.265-0.196,0.478-0.44,0.478h-4.594c-0.243,0-0.439-0.213-0.439-0.478l0,0
					c0-0.267,0.196-0.482,0.439-0.482h4.594C275.43,183.672,275.626,183.888,275.626,184.154L275.626,184.154z"/>
				<path fill="#EADEDA" d="M275.626,185.115c0,0.265-0.196,0.48-0.44,0.48h-4.594c-0.243,0-0.439-0.215-0.439-0.48l0,0
					c0-0.267,0.196-0.482,0.439-0.482h4.594C275.43,184.632,275.626,184.848,275.626,185.115L275.626,185.115z"/>
				<path fill="#EADEDA" d="M275.626,186.075c0,0.265-0.196,0.48-0.44,0.48h-4.594c-0.243,0-0.439-0.215-0.439-0.48l0,0
					c0-0.267,0.196-0.48,0.439-0.48h4.594C275.43,185.595,275.626,185.809,275.626,186.075L275.626,186.075z"/>
				<path fill="#5A5650" d="M275.625,183.192c0,0.265-0.195,0.48-0.438,0.48h-4.596c-0.243,0-0.438-0.215-0.438-0.48H275.625z"/>
				<path fill="#5A5650" d="M275.625,184.154c0,0.265-0.195,0.478-0.438,0.478h-4.596c-0.243,0-0.438-0.213-0.438-0.478H275.625z"/>
				<path fill="#5A5650" d="M275.625,185.115c0,0.265-0.195,0.48-0.438,0.48h-4.596c-0.243,0-0.438-0.215-0.438-0.48H275.625z"/>
				<path fill="#5A5650" d="M275.625,186.075c0,0.265-0.195,0.48-0.438,0.48h-4.596c-0.243,0-0.438-0.215-0.438-0.48H275.625z"/>
				<path fill="#FFFFFF" d="M273.449,165.557c0,0.31-0.25,0.561-0.561,0.561l0,0c-0.31,0-0.561-0.251-0.561-0.561v-3.187
					c0-0.311,0.251-0.562,0.561-0.562l0,0c0.311,0,0.561,0.251,0.561,0.562V165.557z"/>
				<path fill="#FFFFFF" d="M276.539,166.424c-0.123,0.285-0.452,0.417-0.737,0.294l0,0c-0.284-0.123-0.415-0.454-0.293-0.738
					l1.259-2.928c0.122-0.284,0.452-0.417,0.736-0.293l0,0c0.285,0.122,0.417,0.453,0.293,0.737L276.539,166.424z"/>
				<path fill="#FFFFFF" d="M279.033,168.444c-0.225,0.211-0.581,0.202-0.792-0.022l0,0c-0.214-0.226-0.205-0.581,0.021-0.793
					l2.314-2.191c0.225-0.214,0.58-0.204,0.793,0.021l0,0c0.212,0.226,0.202,0.58-0.021,0.794L279.033,168.444z"/>
				<path fill="#FFFFFF" d="M280.526,171.284c-0.291,0.108-0.613-0.043-0.719-0.333l0,0c-0.108-0.29,0.043-0.614,0.333-0.721
					l2.991-1.096c0.29-0.108,0.611,0.043,0.719,0.333l0,0c0.107,0.29-0.042,0.613-0.333,0.721L280.526,171.284z"/>
				<path fill="#FFFFFF" d="M269.508,166.349c0.121,0.284,0.451,0.416,0.737,0.293l0,0c0.284-0.122,0.415-0.453,0.293-0.738
					l-1.259-2.926c-0.122-0.284-0.452-0.416-0.737-0.294l0,0c-0.285,0.124-0.416,0.453-0.294,0.737L269.508,166.349z"/>
				<path fill="#FFFFFF" d="M267.014,168.368c0.225,0.212,0.58,0.204,0.793-0.021l0,0c0.213-0.226,0.202-0.58-0.023-0.794
					l-2.312-2.191c-0.226-0.212-0.581-0.203-0.794,0.022l0,0c-0.213,0.225-0.203,0.581,0.021,0.793L267.014,168.368z"/>
				<path fill="#FFFFFF" d="M265.521,171.208c0.291,0.107,0.612-0.042,0.72-0.333l0,0c0.106-0.29-0.043-0.613-0.334-0.719
					l-2.99-1.098c-0.291-0.106-0.614,0.043-0.721,0.333l0,0c-0.106,0.292,0.043,0.614,0.333,0.722L265.521,171.208z"/>
				<path fill="#FFDC96" d="M274.661,169.099c-1.198,0-2.247,0.663-2.842,1.656c0.519-0.343,1.13-0.545,1.787-0.545
					c1.855,0,3.36,1.582,3.36,3.536c0,0.69-0.191,1.335-0.518,1.88c0.944-0.627,1.573-1.731,1.573-2.991
					C278.022,170.683,276.519,169.099,274.661,169.099z"/>
				<g>
					<path fill="#FFEDCB" d="M276.382,167.551c0,0-0.308,2.024-1.69,2.298c0,0,1.574,0.87,1.684,2.297
						c0.005,0.051,0.007,0.104,0.007,0.155c0,0,0.159-1.907,1.561-2.374C277.942,169.928,276.482,169.187,276.382,167.551z"/>
					<path fill="#FFFFFF" d="M276.274,170.731c0,0,0.142-0.839,0.717-0.943c0,0-0.647-0.372-0.685-0.966
						c0-0.021-0.002-0.043,0-0.064c0,0-0.08,0.792-0.665,0.976C275.642,169.734,276.243,170.051,276.274,170.731z"/>
				</g>
			</g>
		</g>
		
			<image overflow="visible" width="200" height="200" xlink:href="../../test/img/icon2.png"  transform="matrix(0.228 0 0 0.2281 239.4688 235.3599)">
		</image>
		
			<image overflow="visible" width="200" height="200" xlink:href="../../test/img/icon1.png"  transform="matrix(0.228 0 0 0.2281 252.5771 146.9419)">
		</image>
	</g>
	<g clip-path="url(#SVGID_2_)">
		<path fill="#FFFFFF" stroke="#FFFFFF" stroke-width="2" stroke-miterlimit="10" d="M38.001,64.957l-2.739,8.298h-3.521
			L40.7,46.874h4.108l8.999,26.381h-3.638l-2.817-8.298H38.001z M46.647,62.295l-2.582-7.593c-0.587-1.722-0.978-3.288-1.369-4.814
			h-0.079c-0.391,1.566-0.821,3.17-1.33,4.775l-2.582,7.632H46.647z"/>
		<path fill="#FFFFFF" stroke="#FFFFFF" stroke-width="2" stroke-miterlimit="10" d="M85.965,72.08
			c-1.526,0.548-4.538,1.448-8.099,1.448c-3.991,0-7.277-1.018-9.859-3.483c-2.27-2.192-3.678-5.715-3.678-9.824
			C64.368,52.354,69.768,46.6,78.61,46.6c3.051,0,5.438,0.666,6.573,1.213l-0.822,2.779c-1.409-0.626-3.169-1.135-5.83-1.135
			c-6.416,0-10.603,3.992-10.603,10.607c0,6.693,4.03,10.646,10.172,10.646c2.23,0,3.756-0.313,4.538-0.705v-7.867h-5.36v-2.74
			h8.686V72.08z"/>
		<path fill="#FFFFFF" stroke="#FFFFFF" stroke-width="2" stroke-miterlimit="10" d="M108.381,63.626
			c0,7.006-4.851,10.059-9.429,10.059c-5.125,0-9.077-3.757-9.077-9.746c0-6.341,4.147-10.059,9.39-10.059
			C104.704,53.88,108.381,57.833,108.381,63.626z M93.358,63.821c0,4.149,2.386,7.28,5.751,7.28c3.286,0,5.751-3.092,5.751-7.358
			c0-3.209-1.604-7.28-5.673-7.28C95.118,56.463,93.358,60.221,93.358,63.821z"/>
		<path fill="#FFFFFF" stroke="#FFFFFF" stroke-width="2" stroke-miterlimit="10" d="M129.859,63.626
			c0,7.006-4.851,10.059-9.429,10.059c-5.125,0-9.077-3.757-9.077-9.746c0-6.341,4.147-10.059,9.39-10.059
			C126.182,53.88,129.859,57.833,129.859,63.626z M114.836,63.821c0,4.149,2.387,7.28,5.751,7.28c3.286,0,5.751-3.092,5.751-7.358
			c0-3.209-1.604-7.28-5.673-7.28C116.597,56.463,114.836,60.221,114.836,63.821z"/>
		<path fill="#FFFFFF" stroke="#FFFFFF" stroke-width="2" stroke-miterlimit="10" d="M150.555,45.465v22.897
			c0,1.683,0.039,3.601,0.156,4.893h-3.091l-0.157-3.288h-0.078c-1.057,2.114-3.365,3.719-6.456,3.719
			c-4.578,0-8.099-3.875-8.099-9.629c-0.04-6.301,3.874-10.176,8.49-10.176c2.896,0,4.852,1.37,5.712,2.896h0.078V45.465H150.555z
			 M147.112,62.021c0-0.431-0.039-1.018-0.157-1.448c-0.508-2.191-2.386-3.992-4.969-3.992c-3.56,0-5.673,3.131-5.673,7.319
			c0,3.836,1.878,7.006,5.595,7.006c2.309,0,4.421-1.527,5.047-4.11c0.118-0.47,0.157-0.939,0.157-1.488V62.021z"/>
		<path fill="#FFFFFF" stroke="#FFFFFF" stroke-width="2" stroke-miterlimit="10" d="M165.851,54.31l2.504,9.629
			c0.547,2.114,1.056,4.071,1.407,6.027h0.117c0.432-1.917,1.058-3.953,1.684-5.988l3.091-9.668h2.895l2.934,9.472
			c0.705,2.271,1.252,4.267,1.684,6.184h0.116c0.313-1.917,0.822-3.914,1.448-6.145l2.699-9.511h3.403l-6.103,18.944h-3.13
			l-2.895-9.042c-0.666-2.113-1.213-3.992-1.684-6.223h-0.077c-0.471,2.271-1.058,4.227-1.723,6.263l-3.051,9.002h-3.13
			l-5.712-18.944H165.851z"/>
		<path fill="#FFFFFF" stroke="#FFFFFF" stroke-width="2" stroke-miterlimit="10" d="M203.603,73.254l-0.273-2.387h-0.118
			c-1.056,1.487-3.091,2.818-5.789,2.818c-3.835,0-5.791-2.701-5.791-5.44c0-4.58,4.068-7.084,11.386-7.046v-0.391
			c0-1.566-0.432-4.384-4.305-4.384c-1.761,0-3.6,0.548-4.93,1.409L193,55.562c1.564-1.017,3.835-1.683,6.221-1.683
			c5.79,0,7.198,3.953,7.198,7.75v7.084c0,1.644,0.079,3.249,0.313,4.541H203.603z M203.095,63.587
			c-3.756-0.079-8.021,0.587-8.021,4.266c0,2.231,1.487,3.288,3.247,3.288c2.465,0,4.03-1.566,4.578-3.17
			c0.118-0.353,0.196-0.744,0.196-1.096V63.587z"/>
		<path fill="#FFFFFF" stroke="#FFFFFF" stroke-width="2" stroke-miterlimit="10" d="M212.913,54.31l4.147,11.195
			c0.431,1.252,0.899,2.74,1.213,3.875h0.079c0.352-1.135,0.743-2.583,1.212-3.953l3.757-11.116h3.638l-5.164,13.503
			c-2.465,6.498-4.147,9.825-6.494,11.86c-1.684,1.487-3.365,2.074-4.227,2.23l-0.859-2.896c0.859-0.274,1.995-0.822,3.012-1.684
			c0.938-0.744,2.113-2.074,2.895-3.835c0.157-0.353,0.274-0.626,0.274-0.822c0-0.196-0.078-0.47-0.234-0.9l-7.004-17.457H212.913z"
			/>
		<path fill="#FFFFFF" stroke="#FFFFFF" stroke-width="2" stroke-miterlimit="10" d="M37.766,88.009v5.44h4.93v2.623h-4.93v10.216
			c0,2.348,0.665,3.679,2.582,3.679c0.899,0,1.565-0.117,1.995-0.235l0.156,2.583c-0.665,0.274-1.721,0.47-3.051,0.47
			c-1.604,0-2.895-0.509-3.717-1.449c-0.978-1.017-1.33-2.7-1.33-4.931V96.072h-2.934v-2.623h2.934v-4.54L37.766,88.009z"/>
		<path fill="#FFFFFF" stroke="#FFFFFF" stroke-width="2" stroke-miterlimit="10" d="M63.47,102.765
			c0,7.006-4.851,10.059-9.429,10.059c-5.125,0-9.077-3.757-9.077-9.746c0-6.341,4.147-10.059,9.39-10.059
			C59.792,93.019,63.47,96.972,63.47,102.765z M48.446,102.96c0,4.149,2.387,7.28,5.751,7.28c3.286,0,5.751-3.092,5.751-7.358
			c0-3.209-1.604-7.28-5.672-7.28C50.207,95.602,48.446,99.359,48.446,102.96z"/>
		<path fill="#FFFFFF" stroke="#FFFFFF" stroke-width="2" stroke-miterlimit="10" d="M77.396,93.449l2.504,9.628
			c0.547,2.114,1.056,4.071,1.408,6.027h0.118c0.43-1.917,1.056-3.953,1.682-5.988l3.091-9.668h2.896l2.935,9.472
			c0.704,2.271,1.252,4.267,1.682,6.184h0.118c0.313-1.917,0.821-3.914,1.447-6.145l2.7-9.511h3.403l-6.104,18.944h-3.13
			l-2.895-9.042c-0.666-2.113-1.213-3.992-1.683-6.223h-0.079c-0.469,2.271-1.056,4.227-1.721,6.263l-3.052,9.002h-3.13
			l-5.712-18.944H77.396z"/>
		<path fill="#FFFFFF" stroke="#FFFFFF" stroke-width="2" stroke-miterlimit="10" d="M121.565,102.765
			c0,7.006-4.851,10.059-9.429,10.059c-5.125,0-9.077-3.757-9.077-9.746c0-6.341,4.147-10.059,9.39-10.059
			C117.888,93.019,121.565,96.972,121.565,102.765z M106.542,102.96c0,4.149,2.387,7.28,5.751,7.28c3.286,0,5.751-3.092,5.751-7.358
			c0-3.209-1.604-7.28-5.672-7.28C108.302,95.602,106.542,99.359,106.542,102.96z"/>
		<path fill="#FFFFFF" stroke="#FFFFFF" stroke-width="2" stroke-miterlimit="10" d="M125.907,99.359
			c0-2.231-0.039-4.149-0.157-5.91h3.013l0.117,3.719h0.157c0.861-2.544,2.934-4.149,5.243-4.149c0.392,0,0.665,0.04,0.978,0.118
			v3.249c-0.352-0.079-0.704-0.117-1.173-0.117c-2.426,0-4.147,1.839-4.617,4.422c-0.078,0.47-0.156,1.018-0.156,1.605v10.098
			h-3.404V99.359z"/>
		<path fill="#FFFFFF" stroke="#FFFFFF" stroke-width="2" stroke-miterlimit="10" d="M142.26,102.139h0.079
			c0.469-0.666,1.134-1.487,1.682-2.153l5.556-6.537h4.146l-7.315,7.789l8.333,11.155h-4.186l-6.534-9.081l-1.76,1.957v7.124h-3.404
			v-27.79h3.404V102.139z"/>
		<path fill="#FFFFFF" stroke="#FFFFFF" stroke-width="2" stroke-miterlimit="10" d="M166.867,93.449l2.504,9.628
			c0.548,2.114,1.056,4.071,1.407,6.027h0.118c0.431-1.917,1.057-3.953,1.683-5.988l3.091-9.668h2.895l2.935,9.472
			c0.704,2.271,1.252,4.267,1.683,6.184h0.116c0.313-1.917,0.822-3.914,1.448-6.145l2.7-9.511h3.403l-6.104,18.944h-3.13
			l-2.895-9.042c-0.665-2.113-1.213-3.992-1.684-6.223h-0.077c-0.47,2.271-1.057,4.227-1.722,6.263l-3.052,9.002h-3.13
			l-5.711-18.944H166.867z"/>
		<path fill="#FFFFFF" stroke="#FFFFFF" stroke-width="2" stroke-miterlimit="10" d="M198.126,88.126
			c0.039,1.174-0.821,2.113-2.19,2.113c-1.213,0-2.074-0.939-2.074-2.113c0-1.214,0.9-2.153,2.152-2.153
			C197.305,85.973,198.126,86.913,198.126,88.126z M194.292,112.393V93.449h3.443v18.944H194.292z"/>
		<path fill="#FFFFFF" stroke="#FFFFFF" stroke-width="2" stroke-miterlimit="10" d="M207.594,88.009v5.44h4.93v2.623h-4.93v10.216
			c0,2.348,0.665,3.679,2.582,3.679c0.899,0,1.564-0.117,1.996-0.235l0.155,2.583c-0.665,0.274-1.721,0.47-3.051,0.47
			c-1.604,0-2.896-0.509-3.717-1.449c-0.978-1.017-1.331-2.7-1.331-4.931V96.072h-2.934v-2.623h2.934v-4.54L207.594,88.009z"/>
		<path fill="#FFFFFF" stroke="#FFFFFF" stroke-width="2" stroke-miterlimit="10" d="M216.396,84.604h3.443v11.82h0.079
			c0.547-0.979,1.408-1.839,2.465-2.427c1.017-0.587,2.229-0.979,3.521-0.979c2.543,0,6.612,1.566,6.612,8.102v11.272h-3.443
			v-10.881c0-3.053-1.135-5.636-4.382-5.636c-2.229,0-3.99,1.565-4.616,3.444c-0.195,0.47-0.235,0.979-0.235,1.644v11.429h-3.443
			V84.604z"/>
		<path fill="#FFFFFF" stroke="#FFFFFF" stroke-width="2" stroke-miterlimit="10" d="M47.391,139.164H37.14v9.511h11.424v2.857
			H33.736v-26.38h14.241v2.857H37.14v8.337h10.25V139.164z"/>
		<path fill="#FFFFFF" stroke="#FFFFFF" stroke-width="2" stroke-miterlimit="10" d="M52.867,137.715
			c0-1.957-0.039-3.562-0.157-5.127h3.013l0.156,3.053h0.118c1.057-1.801,2.817-3.484,5.947-3.484c2.582,0,4.538,1.566,5.36,3.797
			h0.078c0.587-1.057,1.33-1.879,2.113-2.466c1.135-0.861,2.387-1.331,4.186-1.331c2.504,0,6.221,1.644,6.221,8.22v11.155h-3.365
			v-10.725c0-3.64-1.33-5.832-4.108-5.832c-1.956,0-3.481,1.448-4.069,3.131c-0.156,0.47-0.274,1.097-0.274,1.723v11.703h-3.364
			v-11.351c0-3.014-1.331-5.206-3.952-5.206c-2.152,0-3.716,1.722-4.265,3.444c-0.195,0.509-0.274,1.096-0.274,1.683v11.429h-3.364
			V137.715z"/>
		<path fill="#FFFFFF" stroke="#FFFFFF" stroke-width="2" stroke-miterlimit="10" d="M85.495,137.715
			c0-1.957-0.04-3.562-0.157-5.127h3.013l0.156,3.053h0.118c1.056-1.801,2.817-3.484,5.947-3.484c2.582,0,4.538,1.566,5.36,3.797
			h0.079c0.586-1.057,1.33-1.879,2.112-2.466c1.134-0.861,2.386-1.331,4.186-1.331c2.504,0,6.221,1.644,6.221,8.22v11.155h-3.365
			v-10.725c0-3.64-1.33-5.832-4.108-5.832c-1.956,0-3.482,1.448-4.069,3.131c-0.156,0.47-0.274,1.097-0.274,1.723v11.703h-3.364
			v-11.351c0-3.014-1.331-5.206-3.952-5.206c-2.152,0-3.717,1.722-4.265,3.444c-0.195,0.509-0.274,1.096-0.274,1.683v11.429h-3.364
			V137.715z"/>
		<path fill="#FFFFFF" stroke="#FFFFFF" stroke-width="2" stroke-miterlimit="10" d="M120.04,142.686
			c0.078,4.658,3.051,6.576,6.494,6.576c2.465,0,3.952-0.431,5.243-0.979l0.587,2.465c-1.213,0.548-3.286,1.174-6.299,1.174
			c-5.83,0-9.312-3.835-9.312-9.549c0-5.715,3.364-10.216,8.881-10.216c6.181,0,7.825,5.44,7.825,8.924
			c0,0.705-0.079,1.252-0.118,1.604H120.04z M130.133,140.22c0.04-2.191-0.899-5.597-4.772-5.597c-3.482,0-5.008,3.21-5.282,5.597
			H130.133z"/>
		<path fill="#FFFFFF" stroke="#FFFFFF" stroke-width="2" stroke-miterlimit="10" d="M141.87,127.147v5.44h4.929v2.623h-4.929
			v10.216c0,2.348,0.665,3.679,2.582,3.679c0.9,0,1.565-0.118,1.996-0.235l0.157,2.583c-0.665,0.274-1.722,0.469-3.052,0.469
			c-1.604,0-2.895-0.509-3.716-1.448c-0.979-1.018-1.331-2.701-1.331-4.931V135.21h-2.934v-2.623h2.934v-4.54L141.87,127.147z"/>
	</g>
</g>
</svg>
