<?xml version="1.0" encoding="utf-8"?>
<!-- Generator: Adobe Illustrator 16.0.0, SVG Export Plug-In . SVG Version: 6.00 Build 0)  -->
<!DOCTYPE svg PUBLIC "-//W3C//DTD SVG 1.1//EN" "http://www.w3.org/Graphics/SVG/1.1/DTD/svg11.dtd">
<svg version="1.1" id="Calque_1" xmlns="http://www.w3.org/2000/svg" xmlns:xlink="http://www.w3.org/1999/xlink" x="0px" y="0px"
	 width="2000px" height="1300px" viewBox="0 0 2000 1300" enable-background="new 0 0 2000 1300" xml:space="preserve">
<g id="Calque_5" enable-background="new    ">
	
		<image overflow="visible" width="2000" height="1300" xlink:href="background_emmet.jpg"  transform="matrix(1.0042 0 0 1.007 -8.3579 -1.001)">
	</image>
</g>
<g id="Calque_1_1_">
	<rect display="none" fill="#30B6B2" width="2000" height="1300"/>
	
		<image display="none" overflow="visible" enable-background="new    " width="1920" height="1080" xlink:href="CAA734DEEB108947.jpeg"  transform="matrix(-1.1373 0.382 0.382 1.1373 1904.5342 261.6523)">
	</image>
	<g>
		<g>
			<path fill="#FAC5A1" d="M1634.073,179.789c0.081,1.052-3.552,5.436-7.608,9.984c-3.905,2.213-7.361,4.466-7.361,4.466
				c-5.518-1.844-16.799,1.53-16.799,1.53c-0.506-1.093-2.186-2.09-4.016-3.019c3.031-4.042,8.127-10.94,10.652-14.806
				c3.717-5.695,8.223-5.832,8.674-3.742c0.301,1.338-5.423,9.82-9.588,15.775c3.633-3.715,7.921-8.167,10.394-11.009
				c4.931-5.626,9.849-5.067,10.038-2.717c0.055,0.696-1.516,2.841-3.741,5.518C1629.402,176.935,1633.896,177.536,1634.073,179.789
				z"/>
			<path fill="#195567" d="M1508.665,399.027c1.366,30.047-93.652,58.579-93.652,58.579s-37.464,7.662-52.486-51.75
				c-15.023-59.413,33.585-144.434,33.585-144.434c34.145,59.917,107.447,30.443,107.447,30.443s0.095,2.076,0.271,5.682
				c0.465,9.464,1.436,29.487,2.418,50.097C1507.177,366.985,1508.119,386.872,1508.665,399.027z"/>
			<path fill="#FBCBA5" d="M1636.873,189.691c-5.409,4.111-20.609,15.639-22.633,20.009c-2.033,4.371-7.36,22.058-7.36,22.058
				l-17.892-6.187c0,0,3.194-15.871,1.379-17.988c-1.816-2.117-6.951-12.702-5.668-14.573c1.271-1.885,2.486-21.307,6.65-20.419
				c4.182,0.888,0.931,14.491,1.312,16.499c0.219,1.174,3.059,2.349,5.627,3.66c1.83,0.929,3.51,1.926,4.016,3.019
				c0,0,11.281-3.374,16.799-1.53c0,0,3.457-2.253,7.361-4.466c3.073-1.748,6.434-3.455,8.592-4.042
				C1635.057,185.73,1642.281,185.594,1636.873,189.691z"/>
			<path fill="#195567" d="M1609.83,228.452c0,0-36.059,101.288-103.582,119.193c-0.982-20.61-1.953-40.633-2.418-50.097
				c6.078,2.813,21.867,7.348,39.746-9.588c22.916-21.716,44.388-66.897,44.388-66.897S1600.475,226.772,1609.83,228.452z"/>
			<polygon fill="#FAFDFE" points="1500.941,307.564 1488.513,354.07 1483.855,371.538 1473.201,354.67 1446.05,311.716 			"/>
			<path fill="#E94A53" d="M1481.759,325.329l6.747,28.736l-4.657,17.469l-10.652-16.868l4.098-29.173
				c-3.44-2.664-8.686-8.974-11.021-11.869c1.284-1.325,2.73-2.813,4.192-4.316c4.247-4.316,8.604-8.673,9.355-9.014
				c2.73,3.169,7.349,8.974,10.381,12.838C1487.891,317.325,1484.244,322.802,1481.759,325.329z"/>
			<path fill="#DDF0F5" d="M1479.819,300.293c-0.751,0.341-5.108,4.698-9.355,9.014c-1.462,1.502-2.909,2.991-4.192,4.316
				c-2.582,2.65-4.479,4.644-4.479,4.644c-14.901-1.366-70.722-43.692-70.722-47.325c0-3.647,6.487-14.71,6.487-14.71l0.014,0.013
				c0.491,1.298,1.12,2.268,1.911,2.855c11.609,8.714,47.012,41.603,79.928,40.81c0.055,0.027,0.108,0.068,0.164,0.095
				c0.013,0.027,0.041,0.042,0.055,0.069C1479.696,300.143,1479.751,300.225,1479.819,300.293z"/>
			<path fill="#DDF0F5" d="M1479.889,300.252c-0.014,0-0.041,0.014-0.068,0.041c-0.081-0.096-0.163-0.191-0.245-0.287
				C1479.819,300.157,1479.929,300.252,1479.889,300.252z"/>
			<path fill="#DDF0F5" d="M1503.707,291.757v3.25c0,3.647-2.39,18.507-10.475,21.977c0,0-1.244-1.585-3.032-3.852
				c-3.032-3.865-7.649-9.669-10.381-12.838c0.027-0.027,0.056-0.041,0.068-0.041c0.026,0-0.027-0.055-0.149-0.164
				c-0.028,0-0.056-0.013-0.082-0.027c-0.027-0.027-0.057-0.041-0.082-0.055c-0.041-0.041-0.068-0.082-0.098-0.109
				c8.333-0.19,16.499-2.567,24.081-8.031C1503.611,291.826,1503.652,291.798,1503.707,291.757z"/>
			<path fill="#DDF0F5" d="M1479.889,300.252c-0.014,0-0.041,0.014-0.068,0.041c-0.081-0.096-0.163-0.191-0.245-0.287
				C1479.819,300.157,1479.929,300.252,1479.889,300.252z"/>
			<path fill="#FBCBA5" d="M1503.559,245.88c12.168,33.816,5.338,42.066,0.148,45.876c-0.055,0.042-0.096,0.069-0.148,0.109
				c-7.582,5.463-15.748,7.84-24.081,8.031c-0.025,0.014-0.04,0.014-0.066,0.014c-32.916,0.792-68.317-32.096-79.927-40.81
				c-0.793-0.587-1.421-1.557-1.912-2.855l-0.014-0.013c-8.701-22.782,24.734-147.615,24.734-147.615
				c5.463-13.317,69.997,7.17,78.875,12.975c8.877,5.805,1.365,39.267,5.121,53.949s19.463,31.414,19.463,48.145
				S1503.559,245.88,1503.559,245.88z"/>
			<path fill="#6A3018" d="M1431.736,184.651h-7.513c0,0-2.504-10.016-8.649-9.561c-6.146,0.456-13.203,13.431-4.098,31.186
				c9.105,17.755-12.453,8.267-12.453,8.267s-19.644-102.506,13.137-118.441c32.779-15.935,127.929-7.284,115.637,24.584
				c-12.291,31.868-39.835,17.299-57.59,3.869c-17.756-13.43-23.219-20.031-31.187-18.21
				C1439.021,106.346,1415.12,121.825,1431.736,184.651z"/>
			<path fill="#FFFFFF" d="M1442.613,212.585c0,0-5.853,50.263,20.259,52.128c15.934,1.138,18.665-12.975,18.665-12.975
				S1449.441,264.486,1442.613,212.585z"/>
			<ellipse fill="#6A3018" cx="1461.796" cy="178.96" rx="4.325" ry="6.829"/>
			<path fill="#6A3018" d="M1446.65,172.132c0,0-0.098-0.55-0.054-1.515c0.007-0.487,0.068-1.066,0.161-1.738
				c0.139-0.653,0.23-1.429,0.505-2.219c0.123-0.4,0.257-0.818,0.408-1.248c0.185-0.417,0.373-0.85,0.568-1.293
				c0.399-0.887,0.959-1.766,1.562-2.658c0.667-0.845,1.338-1.757,2.223-2.498c0.435-0.372,0.817-0.82,1.312-1.133l1.456-0.979
				c0.979-0.646,2.096-1.034,3.135-1.506c1.09-0.337,2.188-0.585,3.234-0.812c1.066-0.095,2.095-0.153,3.059-0.191
				c0.965,0.011,1.867,0.17,2.689,0.267c0.409,0.063,0.801,0.123,1.174,0.179c0.368,0.076,0.709,0.207,1.032,0.298
				c0.644,0.187,1.191,0.393,1.644,0.553c0.897,0.325,1.39,0.558,1.39,0.558s-0.556,0.121-1.488,0.252
				c-0.463,0.062-1.025,0.149-1.656,0.201c-0.632,0.032-1.336,0.181-2.092,0.334c-0.749,0.157-1.565,0.237-2.396,0.429
				c-0.822,0.234-1.678,0.464-2.561,0.667c-0.836,0.313-1.699,0.637-2.578,0.966c-0.412,0.215-0.819,0.438-1.241,0.635
				c-0.42,0.202-0.853,0.386-1.224,0.674c-0.787,0.497-1.583,0.983-2.278,1.597c-0.757,0.538-1.375,1.216-2.043,1.821
				c-0.601,0.662-1.226,1.293-1.739,1.963c-0.532,0.659-1.028,1.301-1.45,1.932c-0.464,0.609-0.809,1.219-1.177,1.743
				c-0.299,0.548-0.635,1.015-0.846,1.423C1446.906,171.639,1446.65,172.132,1446.65,172.132z"/>
		</g>
		<path opacity="0.6" fill="#FFFFFF" enable-background="new    " d="M1354.149,698.803l-16.055-21.223l-11.477-15.18l-4.578-6.062
			c0,0-135.799-41.925-187.729,90.029c0,0,11.573-6.898,30.819-4.765c0,0-39.19,44.464-34.649,92.935
			c45.399,17.592,98.861-7.994,98.861-7.994c-3.186,19.086-12.979,28.355-12.979,28.355
			C1357.477,840.906,1354.149,698.803,1354.149,698.803z"/>
		<g>
			<path fill="#E94A53" d="M1678.627,398.104c0,0,69.127-43.314,69.774-39.565c0.646,3.752-56.146,57.451-56.146,57.451
				L1678.627,398.104z"/>
			
				<rect x="1275.651" y="655.532" transform="matrix(-0.6139 -0.7894 0.7894 -0.6139 1664.0286 2140.2271)" fill="#E94A53" width="159.555" height="15.254"/>
			
				<rect x="1293.881" y="664.647" transform="matrix(-0.6139 -0.7894 0.7894 -0.6139 1637.0647 2145.2686)" fill="#E94A53" width="98.599" height="15.252"/>
			<path fill="#E94A53" d="M1376.401,483.911c-36.099,29.993-65.366,63.072-86.21,95.702l-82.931,38.829l79.229-124.819
				c3.893-6.133,12.936-10.995,20.188-10.872L1376.401,483.911z"/>
			<path fill="#E94A53" d="M1535.6,689.219l-16.021,67.838c-1.666,7.074-8.604,14.629-15.502,16.896l-140.474,46.065l58.074-70.856
				l0.314-0.178h0.014C1458.637,736.844,1497.767,716.697,1535.6,689.219z"/>
			<path fill="#EADEDA" d="M1701.544,458.958c-9.261,64.875-71.05,156.82-152.833,220.413c-4.344,3.387-8.727,6.664-13.111,9.848
				c-37.833,27.479-76.963,47.625-113.594,59.767h-0.014c-0.123,0.043-0.232,0.084-0.355,0.123l-66.444-85.402l-65.178-83.819
				c0.056-0.096,0.124-0.178,0.178-0.272c20.844-32.63,50.111-65.709,86.21-95.702c4.069-3.387,8.235-6.733,12.482-10.038
				c81.771-63.606,187.021-99.663,251.963-92.943c22.018,2.267,39.417,9.479,49.674,22.167c0.191,0.22,0.355,0.438,0.532,0.656
				C1701.693,417.424,1704.74,436.585,1701.544,458.958z"/>
			<circle fill="#E83D4B" cx="1560.847" cy="503.876" r="67.265"/>
			<path fill="#DBF0FC" d="M1595.537,548.479c-24.631,19.161-60.134,14.722-79.292-9.909c-19.161-24.632-14.726-60.136,9.911-79.296
				c24.634-19.16,60.137-14.722,79.295,9.912C1624.612,493.814,1620.174,529.32,1595.537,548.479z"/>
			<path fill="#E94A53" d="M1701.548,458.96l-60.702-78.037c22.402,2.314,40.012,9.725,50.211,22.837
				C1701.688,417.428,1704.738,436.578,1701.548,458.96z"/>
			<g>
				<path fill="#FED16B" d="M1342.887,684.93l-5.563-7.356l-3.979-5.263l-1.587-2.1c0,0-47.077-14.535-65.079,31.209
					c0,0,4.013-2.393,10.686-1.652c0,0-13.586,15.414-12.013,32.218c15.737,6.098,34.271-2.771,34.271-2.771
					c-1.104,6.617-4.499,9.83-4.499,9.83C1344.041,734.191,1342.887,684.93,1342.887,684.93z"/>
				<path fill="#FFE8BB" d="M1341.104,682.568l-3.737-4.959l-3.742-4.963c-28.657,2.928-45.964,42.444-45.964,42.444
					S1330.412,709.314,1341.104,682.568z"/>
			</g>
			<path fill="#FFFFFF" stroke="#FED16B" stroke-miterlimit="10" d="M1690.524,403.099l-335.331,260.601l-65.181-83.811
				c23.207-36.398,56.914-73.387,98.867-106.021c81.771-63.597,187.021-99.664,251.971-92.942
				C1662.869,383.197,1680.266,390.406,1690.524,403.099z"/>
		</g>
		<g>
			<path fill="#195567" d="M1409.092,457.928c0,0,56.012,1.705,57.029,8.533c1.017,6.829-19.748,56.71-19.748,56.71l10.744,4.068
				c0,0,36.09-53.942,24.42-69.312c-11.668-15.368-54.551-26.153-57.422-25.284C1417.109,434.766,1409.092,457.928,1409.092,457.928
				z"/>
			
				<ellipse transform="matrix(-0.7962 -0.6051 0.6051 -0.7962 2300.2302 1845.7849)" fill="#0C0D0D" cx="1461.009" cy="535.455" rx="19.11" ry="8.195"/>
		</g>
		<g>
			<path fill="#FBCBA5" d="M1348.99,501.885c-2.869,0.205-1.789-13.479-4.795-15.243c-3.019-1.762-2.498,22.769-2.498,22.769
				s-3.579,1.913-12.743-5.271c-6.651-5.19-0.861-24.133,2.841-34.199l18.834,1.708
				C1351.871,482.955,1351.244,501.721,1348.99,501.885z"/>
			<path fill="#195567" d="M1396.11,339.901c-30.513,48.254-44.839,131.8-44.839,131.8l-0.644-0.055l-18.834-1.709l-0.793-0.068
				c-3.113-96.616,56.654-191.648,56.654-191.648L1396.11,339.901z"/>
			<path fill="#0C424F" d="M1365.094,413.905l24.203-62.188c0,0-24.924,72.104-14.295,84.317
				C1375.002,436.035,1368.9,425.882,1365.094,413.905z"/>
		</g>
		<g>
			<path fill="#FED16B" d="M1629.498,155.153c4.312-4.732,6.964-11.004,6.964-17.911c0-14.708-11.925-26.631-26.632-26.631
				s-26.632,11.923-26.632,26.631c0,6.907,2.651,13.178,6.964,17.911h-0.041c0,0,9.621,9.973,9.658,21.923c0,0,19.24,4.923,19.84,0
				c1.859-15.275,10.008-21.702,9.92-21.923C1629.535,155.143,1629.498,155.153,1629.498,155.153z"/>
			<path fill="#EADEDA" d="M1621.406,179.179h-24.007c0-1.161,0.859-2.103,1.925-2.103h20.158
				C1620.547,177.076,1621.406,178.018,1621.406,179.179z"/>
			<path fill="#EADEDA" d="M1621.408,183.393c0,1.162-0.863,2.105-1.932,2.105h-20.147c-1.065,0-1.931-0.943-1.931-2.105l0,0
				c0-1.163,0.864-2.106,1.931-2.106h20.147C1620.545,181.287,1621.408,182.23,1621.408,183.393L1621.408,183.393z"/>
			<path fill="#EADEDA" d="M1621.408,187.604c0,1.162-0.863,2.104-1.932,2.104h-20.147c-1.065,0-1.931-0.943-1.931-2.104l0,0
				c0-1.163,0.864-2.106,1.931-2.106h20.147C1620.545,185.498,1621.408,186.441,1621.408,187.604L1621.408,187.604z"/>
			<path fill="#EADEDA" d="M1621.408,191.815c0,1.163-0.863,2.105-1.932,2.105h-20.147c-1.065,0-1.931-0.943-1.931-2.105l0,0
				c0-1.163,0.864-2.106,1.931-2.106h20.147C1620.545,189.709,1621.408,190.652,1621.408,191.815L1621.408,191.815z"/>
			<path fill="#5A5650" d="M1621.406,179.179c0,1.161-0.859,2.104-1.924,2.104h-20.158c-1.064,0-1.925-0.942-1.925-2.104H1621.406z"
				/>
			<path fill="#5A5650" d="M1621.406,183.393c0,1.161-0.859,2.103-1.924,2.103h-20.158c-1.064,0-1.925-0.942-1.925-2.103H1621.406z"
				/>
			<path fill="#5A5650" d="M1621.406,187.607c0,1.161-0.859,2.103-1.924,2.103h-20.158c-1.064,0-1.925-0.942-1.925-2.103H1621.406z"
				/>
			<path fill="#5A5650" d="M1621.406,191.82c0,1.161-0.859,2.104-1.924,2.104h-20.158c-1.064,0-1.925-0.942-1.925-2.104H1621.406z"
				/>
			<path fill="#FFFFFF" d="M1611.864,101.865c0,1.359-1.104,2.461-2.461,2.461l0,0c-1.359,0-2.462-1.102-2.462-2.461v-13.97
				c0-1.359,1.103-2.461,2.462-2.461l0,0c1.357,0,2.461,1.102,2.461,2.461V101.865z"/>
			<path fill="#FFFFFF" d="M1625.412,105.671c-0.538,1.249-1.985,1.825-3.234,1.287l0,0c-1.246-0.537-1.822-1.984-1.287-3.233
				l5.523-12.833c0.538-1.248,1.984-1.824,3.232-1.288l0,0c1.25,0.538,1.825,1.985,1.288,3.233L1625.412,105.671z"/>
			<path fill="#FFFFFF" d="M1636.352,114.523c-0.986,0.934-2.543,0.891-3.479-0.096l0,0c-0.934-0.987-0.892-2.544,0.096-3.478
				l10.146-9.604c0.985-0.935,2.545-0.893,3.479,0.094l0,0c0.936,0.986,0.892,2.544-0.096,3.479L1636.352,114.523z"/>
			<path fill="#FFFFFF" d="M1642.898,126.979c-1.275,0.468-2.688-0.188-3.155-1.465l0,0c-0.468-1.275,0.188-2.688,1.462-3.156
				l13.119-4.81c1.274-0.468,2.688,0.187,3.156,1.462l0,0c0.469,1.276-0.188,2.69-1.464,3.16L1642.898,126.979z"/>
			<path fill="#FFFFFF" d="M1594.574,105.338c0.537,1.248,1.983,1.824,3.231,1.287l0,0c1.248-0.537,1.824-1.984,1.287-3.233
				l-5.521-12.833c-0.538-1.248-1.985-1.824-3.233-1.288l0,0c-1.248,0.538-1.824,1.985-1.288,3.233L1594.574,105.338z"/>
			<path fill="#FFFFFF" d="M1583.635,114.189c0.986,0.934,2.543,0.891,3.479-0.096l0,0c0.934-0.987,0.891-2.544-0.097-3.478
				l-10.146-9.604c-0.987-0.935-2.545-0.893-3.479,0.095l0,0c-0.936,0.986-0.891,2.544,0.096,3.479L1583.635,114.189z"/>
			<path fill="#FFFFFF" d="M1577.087,126.645c1.274,0.468,2.688-0.188,3.155-1.465l0,0c0.469-1.275-0.188-2.688-1.463-3.156
				l-13.117-4.81c-1.275-0.468-2.689,0.187-3.157,1.462l0,0c-0.468,1.276,0.188,2.69,1.463,3.16L1577.087,126.645z"/>
			<path fill="#FFDC96" d="M1617.182,117.396c-5.258,0-9.858,2.904-12.469,7.258c2.272-1.504,4.953-2.387,7.837-2.387
				c8.143,0,14.739,6.938,14.739,15.499c0,3.032-0.84,5.853-2.271,8.24c4.144-2.743,6.904-7.582,6.904-13.11
				C1631.922,124.335,1625.322,117.396,1617.182,117.396z"/>
			<g>
				<path fill="#FFEDCB" d="M1624.721,110.611c0,0-1.35,8.877-7.409,10.072c0,0,6.902,3.817,7.382,10.073
					c0.018,0.224,0.027,0.452,0.027,0.682c0,0,0.699-8.365,6.845-10.414C1631.564,121.025,1625.163,117.781,1624.721,110.611z"/>
				<path fill="#FFFFFF" d="M1624.251,124.55c0,0,0.619-3.677,3.144-4.133c0,0-2.841-1.631-3-4.231
					c-0.004-0.093-0.006-0.188-0.005-0.283c0,0-0.347,3.468-2.911,4.278C1621.479,120.181,1624.115,121.571,1624.251,124.55z"/>
			</g>
		</g>
	</g>
</g>
<g id="Calque_4" display="none">
	<path display="inline" fill="none" stroke="#E94A53" stroke-width="2" stroke-miterlimit="10" d="M559.861,974.999
		c0,7.371-4.419,13.347-9.87,13.347H313.08c-5.451,0-9.87-5.976-9.87-13.347V865.764c0-7.37,4.419-13.347,9.87-13.347h236.911
		c5.451,0,9.87,5.977,9.87,13.347V974.999L559.861,974.999z"/>
	<g display="inline">
		<path fill="#E94A53" d="M408.4,953.196c-4.197,1.506-12.48,3.979-22.272,3.979c-10.974,0-20.012-2.797-27.113-9.575
			c-6.239-6.023-10.112-15.708-10.112-27.005c0.107-21.625,14.955-37.44,39.271-37.44c8.393,0,14.955,1.829,18.075,3.336
			l-2.26,7.639c-3.873-1.722-8.715-3.121-16.031-3.121c-17.646,0-29.157,10.976-29.157,29.157c0,18.396,11.082,29.265,27.974,29.265
			c6.133,0,10.328-0.859,12.479-1.937v-21.626h-14.739v-7.531H408.4V953.196z"/>
		<path fill="#E94A53" d="M470.048,929.957c0,19.259-13.342,27.65-25.93,27.65c-14.094,0-24.961-10.328-24.961-26.789
			c0-17.432,11.403-27.651,25.821-27.651C459.935,903.167,470.048,914.034,470.048,929.957z M428.733,930.495
			c0,11.404,6.562,20.012,15.814,20.012c9.038,0,15.816-8.5,15.816-20.227c0-8.823-4.411-20.014-15.602-20.014
			C433.573,910.267,428.733,920.597,428.733,930.495z"/>
		<path fill="#E94A53" d="M502.97,950.938c0-3.873,2.689-6.671,6.349-6.671c3.873,0,6.348,2.798,6.348,6.671
			c0,3.766-2.475,6.671-6.348,6.671C505.552,957.607,502.97,954.702,502.97,950.938z M505.66,935.552l-1.506-51.644h10.328
			l-1.507,51.644H505.66z"/>
	</g>
</g>
<g id="Calque_6">
	
		<image overflow="visible" enable-background="new    " width="200" height="200" xlink:href="CAA734DEEB108948.png"  transform="matrix(1 0 0 1 1462.8301 407.875)">
	</image>
	
		<image overflow="visible" enable-background="new    " width="200" height="200" xlink:href="CAA734DEEB108957.png"  transform="matrix(1 0 0 1 1520.3164 20.2637)">
	</image>
</g>
<g>
	<path fill="#FFFFFF" stroke="#FFFFFF" stroke-width="8" stroke-miterlimit="10" d="M216.008,256.27l-14,42.399h-18l45.799-134.798
		h21l46,134.798h-18.6l-14.399-42.399H216.008z M260.207,242.67l-13.2-38.799c-3-8.8-5-16.8-7-24.6h-0.4c-2,8-4.2,16.2-6.8,24.399
		l-13.2,39H260.207z"/>
	<path fill="#FFFFFF" stroke="#FFFFFF" stroke-width="8" stroke-miterlimit="10" d="M461.205,292.669c-7.8,2.8-23.2,7.4-41.399,7.4
		c-20.4,0-37.2-5.2-50.399-17.8c-11.6-11.2-18.8-29.199-18.8-50.199c0.2-40.199,27.8-69.599,72.999-69.599c15.6,0,27.8,3.4,33.6,6.2
		l-4.2,14.2c-7.2-3.2-16.2-5.8-29.799-5.8c-32.799,0-54.199,20.4-54.199,54.199c0,34.199,20.6,54.399,51.999,54.399
		c11.4,0,19.2-1.6,23.2-3.6v-40.2h-27.399v-14h44.399V292.669z"/>
	<path fill="#FFFFFF" stroke="#FFFFFF" stroke-width="8" stroke-miterlimit="10" d="M575.802,249.47
		c0,35.799-24.799,51.399-48.199,51.399c-26.199,0-46.399-19.2-46.399-49.799c0-32.399,21.2-51.399,47.999-51.399
		C557.003,199.671,575.802,219.871,575.802,249.47z M499.003,250.47c0,21.2,12.2,37.199,29.4,37.199
		c16.8,0,29.399-15.8,29.399-37.599c0-16.4-8.2-37.2-29-37.2S499.003,232.07,499.003,250.47z"/>
	<path fill="#FFFFFF" stroke="#FFFFFF" stroke-width="8" stroke-miterlimit="10" d="M685.602,249.47
		c0,35.799-24.799,51.399-48.199,51.399c-26.199,0-46.399-19.2-46.399-49.799c0-32.399,21.199-51.399,47.999-51.399
		C666.802,199.671,685.602,219.871,685.602,249.47z M608.803,250.47c0,21.2,12.2,37.199,29.4,37.199
		c16.8,0,29.399-15.8,29.399-37.599c0-16.4-8.2-37.2-29-37.2S608.803,232.07,608.803,250.47z"/>
	<path fill="#FFFFFF" stroke="#FFFFFF" stroke-width="8" stroke-miterlimit="10" d="M791.401,156.671V273.67
		c0,8.6,0.2,18.399,0.8,25h-15.8l-0.8-16.8h-0.4c-5.4,10.8-17.2,19-33,19c-23.399,0-41.399-19.8-41.399-49.2
		c-0.2-32.199,19.799-51.999,43.399-51.999c14.8,0,24.8,7,29.2,14.8h0.4v-57.799H791.401z M773.801,241.271c0-2.2-0.2-5.2-0.8-7.4
		c-2.6-11.2-12.2-20.4-25.399-20.4c-18.2,0-29,16-29,37.399c0,19.6,9.6,35.799,28.6,35.799c11.8,0,22.6-7.8,25.8-21
		c0.6-2.4,0.8-4.8,0.8-7.6V241.271z"/>
	<path fill="#FFFFFF" stroke="#FFFFFF" stroke-width="8" stroke-miterlimit="10" d="M869.599,201.871l12.8,49.199
		c2.8,10.8,5.4,20.799,7.2,30.799h0.6c2.2-9.8,5.4-20.2,8.6-30.6l15.8-49.399h14.8l15,48.399c3.6,11.6,6.4,21.8,8.6,31.6h0.6
		c1.6-9.8,4.2-20,7.399-31.399l13.8-48.599h17.4l-31.2,96.798h-16l-14.8-46.199c-3.4-10.8-6.2-20.4-8.6-31.8h-0.4
		c-2.4,11.6-5.4,21.6-8.8,32l-15.6,46h-16L851.6,201.871H869.599z"/>
	<path fill="#FFFFFF" stroke="#FFFFFF" stroke-width="8" stroke-miterlimit="10" d="M1062.598,298.669l-1.4-12.2h-0.6
		c-5.4,7.6-15.801,14.4-29.6,14.4c-19.601,0-29.6-13.8-29.6-27.8c0-23.399,20.799-36.199,58.199-36v-2c0-8-2.201-22.399-22-22.399
		c-9,0-18.4,2.8-25.2,7.2l-3.999-11.6c7.999-5.2,19.6-8.6,31.799-8.6c29.6,0,36.799,20.2,36.799,39.6v36.199
		c0,8.4,0.4,16.6,1.6,23.2H1062.598z M1059.996,249.27c-19.199-0.4-40.998,3-40.998,21.8c0,11.4,7.6,16.8,16.6,16.8
		c12.6,0,20.6-8,23.399-16.2c0.601-1.8,0.999-3.8,0.999-5.6V249.27z"/>
	<path fill="#FFFFFF" stroke="#FFFFFF" stroke-width="8" stroke-miterlimit="10" d="M1110.199,201.871l21.199,57.199
		c2.199,6.4,4.6,14,6.199,19.8h0.4c1.801-5.8,3.801-13.2,6.199-20.2l19.201-56.799h18.6l-26.4,68.999
		c-12.6,33.2-21.199,50.2-33.199,60.599c-8.6,7.6-17.199,10.6-21.6,11.4l-4.4-14.8c4.4-1.4,10.199-4.2,15.4-8.6
		c4.799-3.8,10.799-10.6,14.799-19.6c0.801-1.8,1.4-3.2,1.4-4.2s-0.4-2.4-1.199-4.6l-35.801-89.198H1110.199z"/>
	<path fill="#FFFFFF" stroke="#FFFFFF" stroke-width="8" stroke-miterlimit="10" d="M214.808,357.071v27.8h25.2v13.399h-25.2v52.199
		c0,12,3.4,18.8,13.2,18.8c4.6,0,8-0.6,10.2-1.2l0.8,13.2c-3.4,1.4-8.8,2.4-15.6,2.4c-8.2,0-14.8-2.6-19-7.4
		c-5-5.2-6.8-13.8-6.8-25.2v-52.799h-15v-13.399h15v-23.2L214.808,357.071z"/>
	<path fill="#FFFFFF" stroke="#FFFFFF" stroke-width="8" stroke-miterlimit="10" d="M346.206,432.47
		c0,35.799-24.799,51.399-48.199,51.399c-26.199,0-46.399-19.2-46.399-49.799c0-32.399,21.199-51.399,47.999-51.399
		C327.407,382.671,346.206,402.871,346.206,432.47z M269.407,433.47c0,21.2,12.2,37.199,29.4,37.199
		c16.8,0,29.399-15.8,29.399-37.599c0-16.4-8.2-37.2-29-37.2S269.407,415.07,269.407,433.47z"/>
	<path fill="#FFFFFF" stroke="#FFFFFF" stroke-width="8" stroke-miterlimit="10" d="M417.405,384.871l12.8,49.199
		c2.8,10.8,5.4,20.799,7.2,30.799h0.6c2.2-9.8,5.4-20.2,8.6-30.6l15.8-49.399h14.8l15,48.399c3.6,11.6,6.4,21.8,8.6,31.6h0.6
		c1.6-9.8,4.2-20,7.399-31.399l13.8-48.599h17.4l-31.2,96.798h-16l-14.8-46.199c-3.4-10.8-6.2-20.4-8.6-31.8h-0.4
		c-2.4,11.6-5.4,21.6-8.8,32l-15.6,46h-16l-29.199-96.798H417.405z"/>
	<path fill="#FFFFFF" stroke="#FFFFFF" stroke-width="8" stroke-miterlimit="10" d="M643.203,432.47
		c0,35.799-24.799,51.399-48.199,51.399c-26.199,0-46.399-19.2-46.399-49.799c0-32.399,21.2-51.399,47.999-51.399
		C624.403,382.671,643.203,402.871,643.203,432.47z M566.404,433.47c0,21.2,12.2,37.199,29.4,37.199
		c16.8,0,29.399-15.8,29.399-37.599c0-16.4-8.2-37.2-29-37.2S566.404,415.07,566.404,433.47z"/>
	<path fill="#FFFFFF" stroke="#FFFFFF" stroke-width="8" stroke-miterlimit="10" d="M665.403,415.07c0-11.4-0.2-21.2-0.8-30.199
		h15.4l0.6,19h0.8c4.4-13,15-21.2,26.799-21.2c2,0,3.4,0.2,5,0.6v16.6c-1.8-0.4-3.6-0.6-6-0.6c-12.399,0-21.199,9.4-23.6,22.6
		c-0.4,2.4-0.8,5.2-0.8,8.2v51.599h-17.4V415.07z"/>
	<path fill="#FFFFFF" stroke="#FFFFFF" stroke-width="8" stroke-miterlimit="10" d="M749.002,429.27h0.4c2.4-3.4,5.8-7.6,8.6-11
		l28.399-33.399h21.2l-37.399,39.799l42.599,56.999h-21.399l-33.399-46.399l-9,10v36.399h-17.4V339.671h17.4V429.27z"/>
	<path fill="#FFFFFF" stroke="#FFFFFF" stroke-width="8" stroke-miterlimit="10" d="M874.399,384.871l12.8,49.199
		c2.8,10.8,5.4,20.799,7.2,30.799h0.6c2.2-9.8,5.4-20.2,8.6-30.6l15.8-49.399h14.8l15,48.399c3.6,11.6,6.4,21.8,8.6,31.6h0.6
		c1.6-9.8,4.2-20,7.399-31.399l13.8-48.599h17.4l-31.2,96.798h-16l-14.8-46.199c-3.4-10.8-6.2-20.4-8.6-31.8h-0.4
		c-2.4,11.6-5.4,21.6-8.8,32l-15.6,46h-16l-29.199-96.798H874.399z"/>
	<path fill="#FFFFFF" stroke="#FFFFFF" stroke-width="8" stroke-miterlimit="10" d="M1034.197,357.671c0.199,6-4.2,10.8-11.2,10.8
		c-6.2,0-10.6-4.8-10.6-10.8c0-6.2,4.6-11,10.999-11C1029.997,346.671,1034.197,351.471,1034.197,357.671z M1014.598,481.669
		v-96.798h17.6v96.798H1014.598z"/>
	<path fill="#FFFFFF" stroke="#FFFFFF" stroke-width="8" stroke-miterlimit="10" d="M1082.596,357.071v27.8h25.199v13.399h-25.199
		v52.199c0,12,3.4,18.8,13.199,18.8c4.602,0,8-0.6,10.201-1.2l0.799,13.2c-3.398,1.4-8.799,2.4-15.6,2.4c-8.199,0-14.799-2.6-19-7.4
		c-5-5.2-6.799-13.8-6.799-25.2v-52.799h-15v-13.399h15v-23.2L1082.596,357.071z"/>
	<path fill="#FFFFFF" stroke="#FFFFFF" stroke-width="8" stroke-miterlimit="10" d="M1127.596,339.671h17.6v60.399h0.4
		c2.799-5,7.199-9.4,12.6-12.4c5.199-3,11.4-5,18-5c13,0,33.799,8,33.799,41.399v57.599h-17.6V426.07c0-15.6-5.801-28.8-22.4-28.8
		c-11.398,0-20.398,8-23.6,17.6c-1,2.4-1.199,5-1.199,8.4v58.399h-17.6V339.671z"/>
	<path fill="#FFFFFF" stroke="#FFFFFF" stroke-width="8" stroke-miterlimit="10" d="M264.007,601.471h-52.399v48.6h58.399v14.6
		h-75.799V529.872h72.799v14.6h-55.399v42.6h52.399V601.471z"/>
	<path fill="#FFFFFF" stroke="#FFFFFF" stroke-width="8" stroke-miterlimit="10" d="M292.006,594.071c0-10-0.2-18.2-0.8-26.199h15.4
		l0.8,15.6h0.6c5.4-9.2,14.4-17.8,30.399-17.8c13.2,0,23.2,8,27.399,19.4h0.4c3-5.4,6.8-9.6,10.8-12.6c5.8-4.4,12.2-6.8,21.399-6.8
		c12.8,0,31.8,8.4,31.8,42v56.999h-17.2v-54.799c0-18.6-6.8-29.8-21-29.8c-10,0-17.8,7.4-20.8,16c-0.8,2.4-1.4,5.6-1.4,8.8v59.799
		h-17.2v-57.999c0-15.4-6.8-26.6-20.2-26.6c-11,0-19,8.8-21.799,17.6c-1,2.6-1.4,5.6-1.4,8.6v58.399h-17.2V594.071z"/>
	<path fill="#FFFFFF" stroke="#FFFFFF" stroke-width="8" stroke-miterlimit="10" d="M458.806,594.071c0-10-0.2-18.2-0.8-26.199h15.4
		l0.8,15.6h0.6c5.4-9.2,14.4-17.8,30.399-17.8c13.2,0,23.2,8,27.399,19.4h0.4c3-5.4,6.8-9.6,10.8-12.6c5.8-4.4,12.2-6.8,21.399-6.8
		c12.8,0,31.8,8.4,31.8,42v56.999h-17.2v-54.799c0-18.6-6.8-29.8-21-29.8c-10,0-17.8,7.4-20.8,16c-0.8,2.4-1.4,5.6-1.4,8.8v59.799
		h-17.2v-57.999c0-15.4-6.8-26.6-20.2-26.6c-11,0-19,8.8-21.799,17.6c-1,2.6-1.4,5.6-1.4,8.6v58.399h-17.2V594.071z"/>
	<path fill="#FFFFFF" stroke="#FFFFFF" stroke-width="8" stroke-miterlimit="10" d="M635.405,619.471c0.4,23.8,15.6,33.6,33.2,33.6
		c12.6,0,20.2-2.2,26.8-5l3,12.6c-6.2,2.8-16.799,6-32.199,6c-29.8,0-47.599-19.6-47.599-48.799c0-29.2,17.2-52.2,45.399-52.2
		c31.6,0,40,27.8,40,45.599c0,3.601-0.4,6.4-0.6,8.2H635.405z M687.005,606.871c0.2-11.2-4.6-28.599-24.4-28.599
		c-17.8,0-25.6,16.399-27,28.599H687.005z"/>
	<path fill="#FFFFFF" stroke="#FFFFFF" stroke-width="8" stroke-miterlimit="10" d="M747.003,540.072v27.8h25.2v13.399h-25.2v52.2
		c0,12,3.4,18.8,13.2,18.8c4.6,0,8-0.601,10.2-1.2l0.8,13.199c-3.4,1.4-8.8,2.4-15.6,2.4c-8.2,0-14.8-2.6-19-7.4
		c-5-5.199-6.8-13.799-6.8-25.199v-52.799h-15v-13.399h15v-23.2L747.003,540.072z"/>
</g>
</svg>
