<?xml version="1.0" encoding="utf-8"?>
<!-- Generator: Adobe Illustrator 16.0.0, SVG Export Plug-In . SVG Version: 6.00 Build 0)  -->
<!DOCTYPE svg PUBLIC "-//W3C//DTD SVG 1.1//EN" "http://www.w3.org/Graphics/SVG/1.1/DTD/svg11.dtd">
<svg version="1.1" id="Calque_1" xmlns="http://www.w3.org/2000/svg" xmlns:xlink="http://www.w3.org/1999/xlink" x="0px" y="0px"
	 width="768px" height="1024px" viewBox="0 0 768 1024" enable-background="new 0 0 768 1024" xml:space="preserve">
<rect fill="#373543" width="768" height="1024"/>
<image overflow="visible" width="2000" height="1300" xlink:href="../../test/img/background_emmet.jpg"  transform="matrix(0.7981 0 0 0.7981 -732.291 146.439)">
</image>
<image overflow="visible" width="2000" height="1300" xlink:href="../../test/img/background_emmet.jpg"  transform="matrix(0.7981 0 0 0.7981 -733.3955 -890.0654)">
</image>
<g>
	<g>
		<g>
			<path fill="#FAC5A1" d="M670.426,363.803c0.046,0.591-1.994,3.052-4.272,5.606c-2.194,1.243-4.133,2.508-4.133,2.508
				c-3.099-1.035-9.434,0.859-9.434,0.859c-0.284-0.614-1.227-1.173-2.255-1.695c1.703-2.27,4.564-6.143,5.982-8.313
				c2.087-3.198,4.617-3.275,4.87-2.101c0.169,0.751-3.046,5.514-5.384,8.858c2.04-2.086,4.447-4.586,5.836-6.181
				c2.769-3.16,5.53-2.845,5.637-1.526c0.03,0.391-0.852,1.595-2.102,3.098C667.803,362.2,670.326,362.537,670.426,363.803z"/>
			<path fill="#195567" d="M600.008,486.906c0.768,16.872-52.586,32.893-52.586,32.893s-21.036,4.303-29.473-29.058
				c-8.436-33.361,18.858-81.101,18.858-81.101c19.173,33.644,60.333,17.094,60.333,17.094s0.053,1.166,0.153,3.191
				c0.261,5.314,0.806,16.557,1.357,28.129C599.173,468.915,599.702,480.081,600.008,486.906z"/>
			<path fill="#FBCBA5" d="M671.998,369.363c-3.038,2.309-11.572,8.781-12.709,11.235c-1.142,2.455-4.133,12.386-4.133,12.386
				l-10.047-3.475c0,0,1.795-8.912,0.774-10.1c-1.02-1.188-3.902-7.132-3.182-8.183c0.714-1.058,1.396-11.964,3.734-11.465
				c2.348,0.498,0.522,8.137,0.736,9.264c0.123,0.659,1.718,1.319,3.159,2.055c1.028,0.522,1.971,1.081,2.255,1.695
				c0,0,6.335-1.894,9.434-0.859c0,0,1.938-1.265,4.133-2.508c1.726-0.981,3.613-1.94,4.825-2.27
				C670.979,367.139,675.034,367.062,671.998,369.363z"/>
			<path fill="#195567" d="M656.813,391.127c0,0-20.247,56.874-58.162,66.927c-0.552-11.572-1.097-22.815-1.357-28.129
				c3.412,1.579,12.278,4.125,22.316-5.384c12.868-12.194,24.925-37.563,24.925-37.563S651.56,390.185,656.813,391.127z"/>
			<polygon fill="#FAFDFE" points="595.671,435.549 588.692,461.663 586.078,471.471 580.096,462 564.85,437.88 			"/>
			<path fill="#E94A53" d="M584.9,445.524l3.789,16.135l-2.615,9.809l-5.982-9.472l2.301-16.381
				c-1.933-1.496-4.877-5.039-6.188-6.665c0.721-0.744,1.533-1.579,2.354-2.423c2.385-2.424,4.831-4.87,5.254-5.062
				c1.534,1.779,4.126,5.039,5.828,7.209C588.343,441.03,586.296,444.105,584.9,445.524z"/>
			<path fill="#DDF0F5" d="M583.812,431.467c-0.423,0.191-2.869,2.638-5.254,5.062c-0.82,0.844-1.633,1.679-2.354,2.423
				c-1.45,1.488-2.515,2.608-2.515,2.608c-8.367-0.767-39.712-24.533-39.712-26.573c0-2.047,3.644-8.26,3.644-8.26l0.007,0.008
				c0.277,0.729,0.63,1.273,1.074,1.604c6.518,4.893,26.396,23.36,44.878,22.915c0.032,0.016,0.062,0.039,0.094,0.053
				c0.006,0.016,0.022,0.023,0.03,0.039C583.742,431.382,583.773,431.428,583.812,431.467z"/>
			<path fill="#DDF0F5" d="M583.851,431.444c-0.009,0-0.024,0.007-0.039,0.023c-0.046-0.054-0.092-0.108-0.138-0.162
				C583.812,431.39,583.872,431.444,583.851,431.444z"/>
			<path fill="#DDF0F5" d="M597.225,426.673v1.825c0,2.048-1.342,10.392-5.883,12.34c0,0-0.697-0.89-1.702-2.163
				c-1.702-2.17-4.294-5.43-5.828-7.209c0.015-0.016,0.03-0.023,0.039-0.023c0.015,0-0.017-0.031-0.085-0.092
				c-0.016,0-0.031-0.007-0.046-0.015c-0.016-0.016-0.031-0.023-0.046-0.031c-0.023-0.022-0.039-0.046-0.055-0.061
				c4.679-0.107,9.265-1.441,13.521-4.509C597.171,426.712,597.193,426.696,597.225,426.673z"/>
			<path fill="#DDF0F5" d="M583.851,431.444c-0.009,0-0.024,0.007-0.039,0.023c-0.046-0.054-0.092-0.108-0.138-0.162
				C583.812,431.39,583.872,431.444,583.851,431.444z"/>
			<path fill="#FBCBA5" d="M597.141,400.914c6.832,18.988,2.997,23.62,0.084,25.76c-0.031,0.023-0.054,0.039-0.084,0.062
				c-4.257,3.068-8.843,4.402-13.521,4.509c-0.015,0.008-0.022,0.008-0.039,0.008c-18.481,0.445-38.36-18.022-44.878-22.915
				c-0.444-0.331-0.797-0.875-1.074-1.604l-0.007-0.008c-4.886-12.792,13.889-82.886,13.889-82.886
				c3.067-7.478,39.304,4.026,44.289,7.285c4.984,3.259,0.766,22.048,2.875,30.292c2.109,8.245,10.929,17.639,10.929,27.034
				S597.141,400.914,597.141,400.914z"/>
			<path fill="#6A3018" d="M556.812,366.533h-4.217c0,0-1.407-5.625-4.858-5.369c-3.449,0.256-7.413,7.542-2.3,17.511
				c5.112,9.97-6.992,4.642-6.992,4.642s-11.03-57.558,7.376-66.506c18.406-8.947,71.832-4.09,64.93,13.805
				c-6.9,17.894-22.367,9.713-32.336,2.172c-9.971-7.541-13.038-11.248-17.512-10.225
				C560.902,322.564,547.482,331.255,556.812,366.533z"/>
			<path fill="#FFFFFF" d="M562.92,382.218c0,0-3.285,28.223,11.375,29.27c8.946,0.639,10.48-7.286,10.48-7.286
				S566.754,411.361,562.92,382.218z"/>
			<ellipse fill="#6A3018" cx="573.691" cy="363.337" rx="2.428" ry="3.835"/>
			<path fill="#6A3018" d="M565.187,359.503c0,0-0.054-0.31-0.029-0.851c0.003-0.273,0.038-0.599,0.09-0.976
				c0.077-0.367,0.129-0.802,0.284-1.246c0.069-0.225,0.144-0.459,0.229-0.701c0.103-0.234,0.209-0.477,0.318-0.726
				c0.226-0.498,0.538-0.991,0.877-1.492c0.375-0.474,0.751-0.986,1.247-1.402c0.244-0.209,0.46-0.46,0.736-0.636l0.818-0.549
				c0.548-0.363,1.176-0.581,1.76-0.846c0.612-0.189,1.228-0.329,1.816-0.456c0.599-0.053,1.176-0.086,1.717-0.108
				c0.543,0.006,1.049,0.096,1.511,0.15c0.23,0.036,0.449,0.069,0.658,0.101c0.208,0.042,0.399,0.116,0.58,0.167
				c0.362,0.105,0.67,0.221,0.924,0.311c0.504,0.183,0.779,0.313,0.779,0.313s-0.312,0.068-0.836,0.142
				c-0.26,0.035-0.576,0.083-0.93,0.113c-0.355,0.018-0.75,0.102-1.175,0.188c-0.421,0.087-0.879,0.133-1.345,0.241
				c-0.463,0.132-0.942,0.26-1.438,0.374c-0.47,0.176-0.954,0.358-1.448,0.543c-0.23,0.121-0.459,0.246-0.696,0.356
				c-0.236,0.113-0.479,0.217-0.688,0.379c-0.442,0.279-0.889,0.552-1.279,0.896c-0.425,0.302-0.771,0.683-1.147,1.022
				c-0.336,0.373-0.688,0.727-0.976,1.103c-0.3,0.37-0.578,0.73-0.815,1.084c-0.26,0.342-0.453,0.685-0.66,0.979
				c-0.168,0.308-0.356,0.57-0.475,0.799C565.33,359.226,565.187,359.503,565.187,359.503z"/>
		</g>
		<path opacity="0.6" fill="#FFFFFF" d="M513.246,655.231l-9.014-11.916l-6.443-8.523l-2.571-3.403
			c0,0-76.252-23.542-105.412,50.552c0,0,6.499-3.873,17.306-2.676c0,0-22.006,24.967-19.456,52.183
			c25.492,9.88,55.512-4.487,55.512-4.487c-1.789,10.717-7.287,15.921-7.287,15.921
			C515.114,735.023,513.246,655.231,513.246,655.231z"/>
		<g>
			<path fill="#E94A53" d="M695.442,486.388c0,0,38.815-24.322,39.179-22.217c0.363,2.107-31.525,32.259-31.525,32.259
				L695.442,486.388z"/>
			
				<rect x="469.21" y="630.917" transform="matrix(0.6139 0.7894 -0.7894 0.6139 699.8481 -160.5031)" fill="#E94A53" width="89.591" height="8.563"/>
			
				<rect x="479.453" y="636.034" transform="matrix(0.6139 0.7894 -0.7894 0.6139 701.2222 -153.1073)" fill="#E94A53" width="55.364" height="8.563"/>
			<path fill="#E94A53" d="M525.742,534.569c-20.271,16.842-36.704,35.414-48.409,53.737l-46.564,21.803l44.486-70.087
				c2.186-3.443,7.265-6.174,11.336-6.105L525.742,534.569z"/>
			<path fill="#E94A53" d="M615.133,649.851l-8.997,38.091c-0.936,3.973-4.831,8.214-8.704,9.488l-78.876,25.865l32.608-39.786
				l0.177-0.101h0.007C571.916,676.592,593.889,665.28,615.133,649.851z"/>
			<path fill="#EADEDA" d="M708.311,520.559c-5.199,36.428-39.895,88.056-85.816,123.763c-2.439,1.902-4.899,3.741-7.361,5.529
				c-21.244,15.43-43.217,26.741-63.785,33.558h-0.007c-0.069,0.024-0.13,0.048-0.199,0.069l-37.31-47.952l-36.597-47.064
				c0.029-0.055,0.069-0.101,0.098-0.154c11.705-18.323,28.139-36.896,48.409-53.737c2.285-1.901,4.623-3.78,7.009-5.637
				c45.915-35.715,105.013-55.961,141.478-52.188c12.363,1.272,22.134,5.322,27.894,12.446c0.107,0.123,0.199,0.246,0.298,0.368
				C708.395,497.236,710.105,507.996,708.311,520.559z"/>
			<circle fill="#E83D4B" cx="629.309" cy="545.779" r="37.769"/>
			<path fill="#DBF0FC" d="M648.787,570.824c-13.83,10.759-33.765,8.266-44.523-5.564c-10.758-13.832-8.268-33.766,5.566-44.526
				c13.831-10.758,33.767-8.266,44.523,5.567C665.113,540.13,662.621,560.066,648.787,570.824z"/>
			<path fill="#E94A53" d="M708.312,520.559l-34.084-43.818c12.578,1.299,22.467,5.46,28.193,12.823
				C708.391,497.238,710.104,507.991,708.312,520.559z"/>
			<g>
				<path fill="#FED16B" d="M506.922,647.442l-3.124-4.132l-2.233-2.954l-0.892-1.179c0,0-26.433-8.162-36.542,17.523
					c0,0,2.253-1.343,6-0.927c0,0-7.628,8.654-6.746,18.09c8.838,3.423,19.244-1.558,19.244-1.558
					c-0.62,3.716-2.526,5.521-2.526,5.521C507.571,675.104,506.922,647.442,506.922,647.442z"/>
				<path fill="#FFE8BB" d="M505.921,646.117l-2.099-2.785l-2.101-2.786c-16.092,1.643-25.81,23.832-25.81,23.832
					S499.918,661.134,505.921,646.117z"/>
			</g>
			<path fill="#FFFFFF" stroke="#FED16B" stroke-miterlimit="10" d="M702.124,489.192l-188.29,146.329l-36.6-47.061
				c13.03-20.438,31.957-41.207,55.515-59.531c45.913-35.71,105.015-55.962,141.482-52.188
				C686.595,478.018,696.363,482.065,702.124,489.192z"/>
		</g>
		<g>
			<path fill="#195567" d="M544.098,519.979c0,0,31.45,0.957,32.021,4.791c0.571,3.835-11.089,31.843-11.089,31.843l6.034,2.285
				c0,0,20.264-30.289,13.711-38.919c-6.552-8.629-30.631-14.687-32.242-14.196C548.6,506.974,544.098,519.979,544.098,519.979z"/>
			
				<ellipse transform="matrix(0.6051 -0.7962 0.7962 0.6051 -222.2719 678.9203)" fill="#0C0D0D" cx="573.204" cy="563.506" rx="4.601" ry="10.73"/>
		</g>
		<g>
			<path fill="#FBCBA5" d="M510.35,544.661c-1.611,0.116-1.005-7.569-2.692-8.558c-1.694-0.989-1.403,12.783-1.403,12.783
				s-2.009,1.073-7.155-2.96c-3.733-2.914-0.483-13.551,1.597-19.202l10.574,0.958C511.967,534.032,511.615,544.569,510.35,544.661z
				"/>
			<path fill="#195567" d="M536.808,453.707c-17.132,27.095-25.177,74.006-25.177,74.006l-0.361-0.03l-10.574-0.958l-0.446-0.039
				c-1.748-54.251,31.812-107.612,31.812-107.612L536.808,453.707z"/>
			<path fill="#0C424F" d="M519.392,495.26l13.591-34.918c0,0-13.995,40.487-8.026,47.345
				C524.956,507.687,521.529,501.985,519.392,495.26z"/>
		</g>
		<g>
			<path fill="#FED16B" d="M667.855,349.97c2.423-2.657,3.91-6.179,3.91-10.057c0-8.258-6.694-14.954-14.952-14.954
				c-8.259,0-14.955,6.695-14.955,14.954c0,3.878,1.49,7.4,3.911,10.057h-0.022c0,0,5.401,5.6,5.423,12.31c0,0,10.803,2.765,11.14,0
				c1.044-8.577,5.619-12.186,5.57-12.31C667.877,349.964,667.855,349.97,667.855,349.97z"/>
			<path fill="#EADEDA" d="M663.313,363.46h-13.48c0-0.652,0.483-1.181,1.081-1.181h11.318
				C662.83,362.279,663.313,362.808,663.313,363.46z"/>
			<path fill="#EADEDA" d="M663.314,365.827c0,0.652-0.485,1.182-1.085,1.182h-11.313c-0.598,0-1.083-0.529-1.083-1.182l0,0
				c0-0.653,0.485-1.183,1.083-1.183h11.313C662.829,364.644,663.314,365.173,663.314,365.827L663.314,365.827z"/>
			<path fill="#EADEDA" d="M663.314,368.191c0,0.652-0.485,1.181-1.085,1.181h-11.313c-0.598,0-1.083-0.529-1.083-1.181l0,0
				c0-0.653,0.485-1.183,1.083-1.183h11.313C662.829,367.008,663.314,367.538,663.314,368.191L663.314,368.191z"/>
			<path fill="#EADEDA" d="M663.314,370.556c0,0.653-0.485,1.182-1.085,1.182h-11.313c-0.598,0-1.083-0.529-1.083-1.182l0,0
				c0-0.653,0.485-1.183,1.083-1.183h11.313C662.829,369.373,663.314,369.902,663.314,370.556L663.314,370.556z"/>
			<path fill="#5A5650" d="M663.313,363.46c0,0.652-0.483,1.182-1.081,1.182h-11.318c-0.598,0-1.081-0.53-1.081-1.182H663.313z"/>
			<path fill="#5A5650" d="M663.313,365.827c0,0.651-0.483,1.181-1.081,1.181h-11.318c-0.598,0-1.081-0.529-1.081-1.181H663.313z"/>
			<path fill="#5A5650" d="M663.313,368.192c0,0.652-0.483,1.181-1.081,1.181h-11.318c-0.598,0-1.081-0.528-1.081-1.181H663.313z"/>
			<path fill="#5A5650" d="M663.313,370.558c0,0.652-0.483,1.182-1.081,1.182h-11.318c-0.598,0-1.081-0.53-1.081-1.182H663.313z"/>
			<path fill="#FFFFFF" d="M657.955,320.048c0,0.763-0.618,1.382-1.382,1.382l0,0c-0.764,0-1.382-0.619-1.382-1.382v-7.844
				c0-0.763,0.618-1.382,1.382-1.382l0,0c0.764,0,1.382,0.619,1.382,1.382V320.048z"/>
			<path fill="#FFFFFF" d="M665.562,322.185c-0.303,0.701-1.113,1.025-1.816,0.723l0,0c-0.699-0.302-1.023-1.114-0.723-1.815
				l3.102-7.206c0.302-0.7,1.114-1.024,1.815-0.723l0,0c0.701,0.302,1.025,1.115,0.723,1.815L665.562,322.185z"/>
			<path fill="#FFFFFF" d="M671.705,327.155c-0.555,0.524-1.429,0.5-1.953-0.054l0,0c-0.524-0.554-0.501-1.428,0.054-1.953
				l5.698-5.393c0.553-0.525,1.428-0.501,1.953,0.053l0,0c0.523,0.554,0.499,1.429-0.055,1.954L671.705,327.155z"/>
			<path fill="#FFFFFF" d="M675.381,334.149c-0.716,0.263-1.509-0.105-1.771-0.822l0,0c-0.263-0.716,0.105-1.51,0.82-1.772
				l7.367-2.701c0.716-0.263,1.509,0.104,1.771,0.821l0,0c0.264,0.716-0.105,1.51-0.821,1.774L675.381,334.149z"/>
			<path fill="#FFFFFF" d="M648.247,321.998c0.301,0.701,1.113,1.024,1.815,0.722l0,0c0.7-0.302,1.023-1.114,0.722-1.815
				l-3.101-7.206c-0.302-0.7-1.114-1.024-1.816-0.723l0,0c-0.7,0.302-1.023,1.114-0.723,1.815L648.247,321.998z"/>
			<path fill="#FFFFFF" d="M642.104,326.968c0.553,0.525,1.428,0.5,1.952-0.054l0,0c0.525-0.554,0.501-1.428-0.054-1.953
				l-5.696-5.393c-0.555-0.525-1.43-0.501-1.953,0.053l0,0c-0.526,0.554-0.501,1.429,0.053,1.954L642.104,326.968z"/>
			<path fill="#FFFFFF" d="M638.428,333.962c0.715,0.263,1.509-0.105,1.771-0.822l0,0c0.263-0.716-0.105-1.51-0.821-1.772
				l-7.366-2.701c-0.716-0.263-1.51,0.105-1.771,0.821l0,0c-0.264,0.717,0.105,1.511,0.821,1.774L638.428,333.962z"/>
			<path fill="#FFDC96" d="M660.94,328.769c-2.951,0-5.535,1.63-7.001,4.076c1.276-0.845,2.781-1.341,4.4-1.341
				c4.571,0,8.276,3.896,8.276,8.703c0,1.703-0.472,3.287-1.275,4.627c2.326-1.541,3.877-4.257,3.877-7.361
				C669.218,332.665,665.512,328.769,660.94,328.769z"/>
			<g>
				<path fill="#FFEDCB" d="M665.174,324.959c0,0-0.758,4.985-4.16,5.656c0,0,3.876,2.144,4.145,5.656
					c0.01,0.126,0.016,0.254,0.016,0.383c0,0,0.394-4.697,3.844-5.847C669.018,330.806,665.424,328.985,665.174,324.959z"/>
				<path fill="#FFFFFF" d="M664.91,332.786c0,0,0.348-2.064,1.766-2.32c0,0-1.596-0.916-1.685-2.376
					c-0.003-0.052-0.004-0.105-0.003-0.159c0,0-0.194,1.948-1.635,2.402C663.354,330.333,664.834,331.113,664.91,332.786z"/>
			</g>
		</g>
	</g>
	
		<image overflow="visible" width="200" height="200" xlink:href="../../test/img/icon2.png"  transform="matrix(0.5615 0 0 0.5615 574.2705 491.8735)">
	</image>
	
		<image overflow="visible" width="200" height="200" xlink:href="../../test/img/icon1.png"  transform="matrix(0.5615 0 0 0.5615 606.5498 274.2271)">
	</image>
</g>
<g>
	<path fill="#FFFFFF" stroke="#FFFFFF" stroke-width="5" stroke-miterlimit="10" d="M157.724,198.966l-6.065,18.369h-7.798
		l19.841-58.397h9.098l19.928,58.397h-8.058l-6.238-18.369H157.724z M176.872,193.075l-5.718-16.809
		c-1.3-3.812-2.166-7.278-3.032-10.657h-0.173c-0.867,3.465-1.819,7.018-2.946,10.57l-5.718,16.895H176.872z"/>
	<path fill="#FFFFFF" stroke="#FFFFFF" stroke-width="5" stroke-miterlimit="10" d="M263.947,214.736
		c-3.379,1.213-10.051,3.206-17.936,3.206c-8.837,0-16.116-2.252-21.833-7.711c-5.025-4.852-8.145-12.649-8.145-21.748
		c0.086-17.415,12.043-30.151,31.625-30.151c6.758,0,12.043,1.473,14.556,2.686l-1.82,6.152c-3.119-1.386-7.018-2.513-12.91-2.513
		c-14.209,0-23.48,8.838-23.48,23.48c0,14.816,8.924,23.567,22.527,23.567c4.939,0,8.318-0.693,10.051-1.559v-17.416h-11.871v-6.065
		h19.235V214.736z"/>
	<path fill="#FFFFFF" stroke="#FFFFFF" stroke-width="5" stroke-miterlimit="10" d="M313.591,196.021
		c0,15.509-10.744,22.267-20.881,22.267c-11.351,0-20.101-8.318-20.101-21.574c0-14.036,9.184-22.267,20.794-22.267
		C305.447,174.447,313.591,183.198,313.591,196.021z M280.32,196.454c0,9.185,5.285,16.116,12.736,16.116
		c7.278,0,12.736-6.845,12.736-16.289c0-7.104-3.552-16.115-12.563-16.115S280.32,188.482,280.32,196.454z"/>
	<path fill="#FFFFFF" stroke="#FFFFFF" stroke-width="5" stroke-miterlimit="10" d="M361.158,196.021
		c0,15.509-10.744,22.267-20.881,22.267c-11.35,0-20.101-8.318-20.101-21.574c0-14.036,9.185-22.267,20.794-22.267
		C353.013,174.447,361.158,183.198,361.158,196.021z M327.887,196.454c0,9.185,5.285,16.116,12.736,16.116
		c7.278,0,12.736-6.845,12.736-16.289c0-7.104-3.552-16.115-12.563-16.115S327.887,188.482,327.887,196.454z"/>
	<path fill="#FFFFFF" stroke="#FFFFFF" stroke-width="5" stroke-miterlimit="10" d="M406.99,155.819v50.686
		c0,3.725,0.088,7.971,0.348,10.83h-6.846l-0.348-7.278h-0.172c-2.34,4.679-7.451,8.231-14.296,8.231
		c-10.137,0-17.935-8.578-17.935-21.314c-0.087-13.95,8.578-22.527,18.801-22.527c6.412,0,10.744,3.033,12.65,6.412h0.172v-25.04
		H406.99z M399.365,192.469c0-0.953-0.086-2.252-0.346-3.206c-1.126-4.853-5.285-8.838-11.004-8.838
		c-7.884,0-12.563,6.932-12.563,16.202c0,8.491,4.159,15.509,12.39,15.509c5.112,0,9.79-3.379,11.177-9.097
		c0.26-1.04,0.346-2.08,0.346-3.292V192.469z"/>
	<path fill="#FFFFFF" stroke="#FFFFFF" stroke-width="5" stroke-miterlimit="10" d="M151.052,265.193l5.545,21.314
		c1.213,4.678,2.339,9.011,3.119,13.343h0.259c0.953-4.245,2.34-8.751,3.726-13.256l6.845-21.4h6.412l6.498,20.967
		c1.56,5.025,2.773,9.444,3.726,13.689h0.26c0.693-4.245,1.819-8.665,3.206-13.603l5.978-21.054h7.539l-13.517,41.935h-6.932
		l-6.411-20.015c-1.473-4.678-2.686-8.837-3.726-13.776h-0.173c-1.039,5.025-2.339,9.357-3.812,13.862l-6.758,19.928h-6.932
		l-12.65-41.935H151.052z"/>
	<path fill="#FFFFFF" stroke="#FFFFFF" stroke-width="5" stroke-miterlimit="10" d="M234.661,307.128l-0.606-5.285h-0.26
		c-2.339,3.292-6.845,6.238-12.823,6.238c-8.491,0-12.823-5.979-12.823-12.043c0-10.137,9.01-15.683,25.213-15.596v-0.866
		c0-3.466-0.953-9.705-9.531-9.705c-3.899,0-7.971,1.213-10.917,3.119l-1.732-5.024c3.466-2.253,8.491-3.726,13.776-3.726
		c12.824,0,15.942,8.75,15.942,17.155v15.682c0,3.639,0.173,7.191,0.693,10.051H234.661z M233.535,285.727
		c-8.318-0.173-17.761,1.299-17.761,9.444c0,4.939,3.292,7.278,7.191,7.278c5.458,0,8.925-3.466,10.138-7.018
		c0.26-0.779,0.433-1.646,0.433-2.426V285.727z"/>
	<path fill="#FFFFFF" stroke="#FFFFFF" stroke-width="5" stroke-miterlimit="10" d="M255.282,265.193l9.184,24.78
		c0.953,2.772,1.993,6.065,2.686,8.578h0.173c0.78-2.513,1.646-5.718,2.686-8.751l8.317-24.606h8.058l-11.437,29.892
		c-5.458,14.383-9.184,21.748-14.383,26.253c-3.726,3.292-7.451,4.592-9.357,4.938l-1.906-6.412c1.906-0.607,4.418-1.82,6.671-3.726
		c2.08-1.646,4.679-4.592,6.412-8.491c0.347-0.78,0.607-1.387,0.607-1.82s-0.174-1.04-0.52-1.993l-15.509-38.642H255.282z"/>
	<path fill="#FFFFFF" stroke="#FFFFFF" stroke-width="5" stroke-miterlimit="10" d="M320.695,253.149v12.043h10.917v5.805h-10.917
		v22.613c0,5.199,1.473,8.145,5.719,8.145c1.993,0,3.466-0.26,4.419-0.521l0.346,5.718c-1.473,0.606-3.812,1.04-6.758,1.04
		c-3.552,0-6.411-1.126-8.23-3.206c-2.166-2.252-2.946-5.978-2.946-10.917v-22.873h-6.498v-5.805h6.498v-10.051L320.695,253.149z"/>
	<path fill="#FFFFFF" stroke="#FFFFFF" stroke-width="5" stroke-miterlimit="10" d="M377.619,285.813
		c0,15.509-10.744,22.268-20.88,22.268c-11.351,0-20.102-8.318-20.102-21.574c0-14.036,9.184-22.267,20.794-22.267
		C369.475,264.24,377.619,272.99,377.619,285.813z M344.349,286.247c0,9.185,5.285,16.116,12.736,16.116
		c7.278,0,12.736-6.845,12.736-16.289c0-7.105-3.552-16.116-12.563-16.116C348.247,269.958,344.349,278.276,344.349,286.247z"/>
	<path fill="#FFFFFF" stroke="#FFFFFF" stroke-width="5" stroke-miterlimit="10" d="M151.052,354.985l5.545,21.314
		c1.213,4.679,2.339,9.01,3.119,13.343h0.259c0.953-4.245,2.34-8.751,3.726-13.256l6.845-21.401h6.412l6.498,20.968
		c1.56,5.025,2.773,9.444,3.726,13.689h0.26c0.693-4.245,1.819-8.664,3.206-13.603l5.978-21.055h7.539l-13.517,41.936h-6.932
		l-6.411-20.015c-1.473-4.679-2.686-8.838-3.726-13.776h-0.173c-1.039,5.025-2.339,9.357-3.812,13.863l-6.758,19.928h-6.932
		l-12.65-41.936H151.052z"/>
	<path fill="#FFFFFF" stroke="#FFFFFF" stroke-width="5" stroke-miterlimit="10" d="M248.871,375.606
		c0,15.509-10.744,22.267-20.881,22.267c-11.351,0-20.101-8.317-20.101-21.574c0-14.036,9.184-22.268,20.794-22.268
		C240.727,354.032,248.871,362.783,248.871,375.606z M215.6,376.04c0,9.184,5.286,16.115,12.736,16.115
		c7.278,0,12.736-6.845,12.736-16.289c0-7.104-3.552-16.116-12.562-16.116C219.499,359.751,215.6,368.068,215.6,376.04z"/>
	<path fill="#FFFFFF" stroke="#FFFFFF" stroke-width="5" stroke-miterlimit="10" d="M258.488,368.068
		c0-4.938-0.087-9.184-0.347-13.083h6.671l0.26,8.231h0.347c1.906-5.632,6.498-9.185,11.61-9.185c0.867,0,1.473,0.087,2.166,0.261
		v7.191c-0.78-0.174-1.559-0.26-2.6-0.26c-5.372,0-9.184,4.072-10.223,9.791c-0.173,1.039-0.347,2.252-0.347,3.552v22.354h-7.538
		V368.068z"/>
	<path fill="#FFFFFF" stroke="#FFFFFF" stroke-width="5" stroke-miterlimit="10" d="M294.704,374.22h0.173
		c1.04-1.473,2.513-3.292,3.726-4.765l12.303-14.47h9.184l-16.202,17.242l18.455,24.693h-9.271l-14.469-20.101l-3.899,4.332v15.77
		h-7.538v-61.517h7.538V374.22z"/>
	<path fill="#FFFFFF" stroke="#FFFFFF" stroke-width="5" stroke-miterlimit="10" d="M349.027,354.985l5.545,21.314
		c1.213,4.679,2.339,9.01,3.119,13.343h0.26c0.953-4.245,2.339-8.751,3.726-13.256l6.845-21.401h6.411l6.499,20.968
		c1.56,5.025,2.773,9.444,3.727,13.689h0.259c0.694-4.245,1.819-8.664,3.206-13.603l5.979-21.055h7.538l-13.517,41.936h-6.932
		l-6.411-20.015c-1.473-4.679-2.686-8.838-3.726-13.776h-0.174c-1.04,5.025-2.339,9.357-3.812,13.863l-6.758,19.928h-6.932
		l-12.65-41.936H349.027z"/>
	<path fill="#FFFFFF" stroke="#FFFFFF" stroke-width="5" stroke-miterlimit="10" d="M418.254,343.202
		c0.086,2.599-1.82,4.679-4.852,4.679c-2.687,0-4.593-2.08-4.593-4.679c0-2.686,1.993-4.765,4.765-4.765
		C416.434,338.437,418.254,340.516,418.254,343.202z M409.763,396.921v-41.936h7.624v41.936H409.763z"/>
	<path fill="#FFFFFF" stroke="#FFFFFF" stroke-width="5" stroke-miterlimit="10" d="M439.221,342.942v12.043h10.916v5.805h-10.916
		v22.614c0,5.199,1.473,8.145,5.719,8.145c1.992,0,3.465-0.26,4.418-0.52l0.346,5.718c-1.473,0.607-3.811,1.04-6.758,1.04
		c-3.551,0-6.41-1.126-8.23-3.206c-2.166-2.252-2.945-5.978-2.945-10.917v-22.874h-6.498v-5.805h6.498v-10.051L439.221,342.942z"/>
	<path fill="#FFFFFF" stroke="#FFFFFF" stroke-width="5" stroke-miterlimit="10" d="M458.715,335.404h7.623v26.167h0.174
		c1.213-2.166,3.119-4.072,5.459-5.372c2.252-1.299,4.938-2.166,7.797-2.166c5.633,0,14.645,3.466,14.645,17.936v24.953h-7.625
		v-24.087c0-6.758-2.514-12.477-9.705-12.477c-4.938,0-8.838,3.466-10.225,7.625c-0.432,1.04-0.52,2.166-0.52,3.639v25.3h-7.623
		V335.404z"/>
	<path fill="#FFFFFF" stroke="#FFFFFF" stroke-width="5" stroke-miterlimit="10" d="M178.518,459.334h-22.701v21.054h25.3v6.325
		H148.28v-58.397h31.538v6.325h-24v18.455h22.701V459.334z"/>
	<path fill="#FFFFFF" stroke="#FFFFFF" stroke-width="5" stroke-miterlimit="10" d="M190.647,456.128
		c0-4.332-0.087-7.884-0.347-11.35h6.672l0.346,6.758h0.26c2.34-3.985,6.239-7.711,13.17-7.711c5.719,0,10.05,3.466,11.87,8.404
		h0.173c1.3-2.339,2.946-4.159,4.679-5.458c2.513-1.906,5.285-2.946,9.271-2.946c5.545,0,13.776,3.639,13.776,18.195v24.693h-7.451
		v-23.74c0-8.058-2.946-12.91-9.098-12.91c-4.332,0-7.711,3.206-9.011,6.932c-0.346,1.04-0.606,2.426-0.606,3.812v25.906h-7.451
		v-25.126c0-6.671-2.946-11.523-8.751-11.523c-4.765,0-8.231,3.812-9.444,7.625c-0.434,1.126-0.606,2.426-0.606,3.726v25.299h-7.451
		V456.128z"/>
	<path fill="#FFFFFF" stroke="#FFFFFF" stroke-width="5" stroke-miterlimit="10" d="M262.906,456.128
		c0-4.332-0.087-7.884-0.347-11.35h6.672l0.347,6.758h0.26c2.34-3.985,6.238-7.711,13.17-7.711c5.718,0,10.05,3.466,11.87,8.404
		h0.173c1.3-2.339,2.946-4.159,4.679-5.458c2.513-1.906,5.285-2.946,9.271-2.946c5.545,0,13.776,3.639,13.776,18.195v24.693h-7.451
		v-23.74c0-8.058-2.946-12.91-9.098-12.91c-4.333,0-7.711,3.206-9.011,6.932c-0.347,1.04-0.606,2.426-0.606,3.812v25.906h-7.451
		v-25.126c0-6.671-2.946-11.523-8.751-11.523c-4.765,0-8.23,3.812-9.444,7.625c-0.434,1.126-0.606,2.426-0.606,3.726v25.299h-7.451
		V456.128z"/>
	<path fill="#FFFFFF" stroke="#FFFFFF" stroke-width="5" stroke-miterlimit="10" d="M339.411,467.132
		c0.173,10.31,6.758,14.557,14.383,14.557c5.459,0,8.751-0.953,11.61-2.166l1.299,5.458c-2.686,1.213-7.278,2.599-13.949,2.599
		c-12.91,0-20.621-8.49-20.621-21.141c0-12.65,7.451-22.614,19.667-22.614c13.689,0,17.329,12.043,17.329,19.755
		c0,1.559-0.174,2.772-0.26,3.552H339.411z M361.765,461.674c0.086-4.852-1.993-12.391-10.57-12.391
		c-7.711,0-11.09,7.105-11.697,12.391H361.765z"/>
	<path fill="#FFFFFF" stroke="#FFFFFF" stroke-width="5" stroke-miterlimit="10" d="M387.756,432.735v12.043h10.917v5.805h-10.917
		v22.614c0,5.199,1.474,8.144,5.719,8.144c1.992,0,3.466-0.26,4.419-0.52l0.347,5.719c-1.474,0.606-3.812,1.04-6.758,1.04
		c-3.553,0-6.412-1.126-8.231-3.206c-2.166-2.253-2.946-5.978-2.946-10.917v-22.874h-6.498v-5.805h6.498v-10.05L387.756,432.735z"/>
</g>
<rect fill="none" width="768" height="1024"/>
<path display="none" fill="none" stroke="#E94A53" stroke-width="2" stroke-miterlimit="10" d="M345.924,615.463
	c0,4.45-2.668,8.059-5.959,8.059H196.909c-3.292,0-5.96-3.608-5.96-8.059v-65.961c0-4.45,2.668-8.059,5.96-8.059h143.056
	c3.291,0,5.959,3.608,5.959,8.059V615.463z"/>
<g display="none">
	<path display="inline" fill="#E94A53" d="M254.467,602.297c-2.535,0.91-7.537,2.404-13.449,2.404
		c-6.626,0-12.083-1.689-16.372-5.782c-3.768-3.638-6.106-9.485-6.106-16.307c0.065-13.058,9.03-22.608,23.712-22.608
		c5.068,0,9.031,1.104,10.915,2.015l-1.365,4.612c-2.338-1.04-5.262-1.885-9.68-1.885c-10.654,0-17.606,6.627-17.606,17.606
		c0,11.109,6.691,17.671,16.891,17.671c3.703,0,6.237-0.52,7.536-1.17v-13.059h-8.9v-4.547h14.423V602.297z"/>
	<path display="inline" fill="#E94A53" d="M291.692,588.264c0,11.63-8.056,16.697-15.657,16.697c-8.51,0-15.072-6.236-15.072-16.177
		c0-10.524,6.887-16.697,15.593-16.697C285.585,572.087,291.692,578.65,291.692,588.264z M266.744,588.59
		c0,6.886,3.963,12.083,9.55,12.083c5.458,0,9.551-5.133,9.551-12.213c0-5.327-2.664-12.085-9.42-12.085
		C269.668,576.375,266.744,582.612,266.744,588.59z"/>
	<path display="inline" fill="#E94A53" d="M311.572,600.933c0-2.339,1.624-4.027,3.833-4.027c2.339,0,3.833,1.688,3.833,4.027
		c0,2.274-1.494,4.028-3.833,4.028C313.13,604.961,311.572,603.207,311.572,600.933z M313.195,591.643l-0.909-31.185h6.236
		l-0.909,31.185H313.195z"/>
</g>
</svg>
